<svg width="64" height="58" viewBox="0 0 64 58" fill="none" xmlns="http://www.w3.org/2000/svg">
<rect width="64" height="58" rx="29" fill="#E6F7FF"/>
<path d="M38.6665 17.667H25.3332C21.3332 17.667 18.6665 19.667 18.6665 24.3337V33.667C18.6665 38.3337 21.3332 40.3337 25.3332 40.3337H38.6665C42.6665 40.3337 45.3332 38.3337 45.3332 33.667V24.3337C45.3332 19.667 42.6665 17.667 38.6665 17.667ZM39.2932 25.787L35.1198 29.1203C34.2398 29.827 33.1198 30.1737 31.9998 30.1737C30.8798 30.1737 29.7465 29.827 28.8798 29.1203L24.7065 25.787C24.2798 25.4403 24.2132 24.8003 24.5465 24.3737C24.8932 23.947 25.5198 23.867 25.9465 24.2137L30.1198 27.547C31.1332 28.3603 32.8532 28.3603 33.8665 27.547L38.0398 24.2137C38.4665 23.867 39.1065 23.9337 39.4398 24.3737C39.7865 24.8003 39.7198 25.4403 39.2932 25.787Z" fill="#4FC3F7"/>
</svg>
