<svg width="3500" height="216" viewBox="0 0 3500 216" fill="none" xmlns="http://www.w3.org/2000/svg">
<rect width="3500" height="63" transform="translate(0 152.668) rotate(-2.5)" fill="white"/>
<path d="M18.677 199.484C16.1638 199.593 13.8517 199.116 11.7407 198.05C9.64538 196.985 7.96835 195.47 6.70967 193.508C5.45031 191.53 4.76645 189.299 4.65808 186.817L3.76661 166.399L8.14525 166.208L9.03263 186.533C9.14577 189.124 10.0991 191.256 11.8925 192.93C13.7009 194.587 15.9007 195.359 18.492 195.246C21.0989 195.132 23.2309 194.171 24.8879 192.362C26.5443 190.538 27.316 188.331 27.2028 185.739L26.3154 165.415L30.6707 165.225L31.5621 185.643C31.6705 188.125 31.1836 190.406 30.1015 192.486C29.0186 194.551 27.4721 196.206 25.462 197.451C23.4675 198.696 21.2059 199.373 18.677 199.484ZM67.3851 196.771L61.9293 197.009L50.8189 183.793L40.9259 197.926L35.5404 198.161L47.7153 180.949L34.2832 165.067L39.7155 164.83L50.6569 177.935L60.3209 163.93L65.7532 163.693L53.7564 180.686L67.3851 196.771ZM94.1923 162.451C97.3456 162.314 100.234 162.907 102.856 164.231C105.479 165.556 107.572 167.451 109.134 169.916C110.695 172.366 111.544 175.144 111.679 178.251C111.815 181.357 111.212 184.206 109.871 186.798C108.529 189.391 106.61 191.461 104.113 193.009C101.615 194.557 98.7901 195.399 95.6369 195.537L82.8756 196.094L81.4311 163.009L94.1923 162.451ZM95.4101 191.418C98.9068 191.265 101.782 189.951 104.035 187.476C106.289 185 107.338 181.99 107.184 178.447C107.082 176.121 106.452 174.037 105.292 172.195C104.147 170.337 102.607 168.911 100.671 167.916C98.751 166.921 96.6357 166.474 94.3254 166.574L86.013 166.937L87.0977 191.781L95.4101 191.418ZM140.957 181.312C140.967 181.546 140.955 182.157 140.919 183.144L119.869 184.063C120.385 186.199 121.483 187.895 123.165 189.151C124.861 190.39 126.888 190.959 129.245 190.856C130.993 190.779 132.585 190.342 134.02 189.545C135.455 188.731 136.56 187.721 137.336 186.514L140.276 188.826C139.115 190.534 137.572 191.908 135.647 192.946C133.737 193.983 131.611 194.553 129.27 194.655C125.445 194.822 122.207 193.728 119.555 191.373C116.903 189.017 115.497 186.005 115.336 182.337C115.233 179.964 115.693 177.786 116.717 175.802C117.755 173.802 119.234 172.204 121.153 171.01C123.071 169.816 125.232 169.166 127.636 169.061C130.025 168.957 132.219 169.417 134.218 170.44C136.218 171.463 137.815 172.934 139.009 174.852C140.203 176.755 140.852 178.908 140.957 181.312ZM127.755 172.857C125.632 172.949 123.827 173.693 122.339 175.087C120.851 176.466 119.958 178.21 119.659 180.318L136.494 179.583C136.011 177.477 134.969 175.81 133.367 174.582C131.764 173.338 129.894 172.763 127.755 172.857ZM154.096 193.571C150.147 193.744 146.782 192.608 144.001 190.165L146.166 187.091C148.253 189.048 150.819 189.961 153.863 189.828C155.517 189.756 156.862 189.392 157.897 188.737C158.931 188.066 159.425 187.192 159.378 186.115C159.358 185.662 159.223 185.261 158.973 184.913C158.739 184.548 158.46 184.255 158.137 184.034C157.831 183.813 157.368 183.606 156.75 183.414C156.146 183.206 155.616 183.057 155.158 182.968C154.716 182.862 154.084 182.725 153.264 182.558C152.506 182.403 151.907 182.281 151.465 182.191C151.022 182.085 150.444 181.922 149.731 181.703C149.033 181.484 148.461 181.266 148.013 181.051C147.582 180.835 147.1 180.551 146.569 180.199C146.052 179.831 145.636 179.442 145.321 179.034C145.021 178.609 144.757 178.104 144.528 177.52C144.314 176.919 144.191 176.26 144.16 175.542C144.093 174.012 144.473 172.674 145.298 171.528C146.124 170.381 147.221 169.52 148.587 168.944C149.953 168.353 151.495 168.02 153.212 167.945C156.74 167.791 159.778 168.776 162.326 170.902L160.14 174.023C158.269 172.353 156.029 171.575 153.423 171.689C151.94 171.754 150.719 172.089 149.76 172.694C148.801 173.298 148.344 174.108 148.388 175.123C148.408 175.591 148.544 176.008 148.794 176.372C149.044 176.721 149.322 177.006 149.629 177.227C149.952 177.448 150.43 177.661 151.065 177.868C151.699 178.059 152.229 178.208 152.656 178.315C153.098 178.405 153.745 178.533 154.597 178.699C155.338 178.839 155.93 178.962 156.372 179.067C156.83 179.157 157.407 179.304 158.104 179.508C158.801 179.712 159.365 179.922 159.797 180.138C160.244 180.337 160.725 180.613 161.241 180.966C161.757 181.319 162.164 181.7 162.464 182.109C162.763 182.519 163.02 183.023 163.234 183.624C163.463 184.208 163.592 184.852 163.623 185.554C163.726 187.911 162.878 189.809 161.08 191.249C159.281 192.672 156.953 193.446 154.096 193.571ZM169.211 162.93C168.414 162.964 167.74 162.736 167.187 162.244C166.633 161.736 166.339 161.092 166.305 160.312C166.27 159.516 166.506 158.848 167.015 158.31C167.523 157.772 168.175 157.485 168.971 157.45C169.752 157.416 170.411 157.646 170.949 158.138C171.486 158.631 171.772 159.275 171.807 160.071C171.841 160.852 171.604 161.519 171.097 162.073C170.604 162.611 169.975 162.896 169.211 162.93ZM168.431 192.359L167.364 167.913L171.485 167.733L172.552 192.179L168.431 192.359ZM194.222 191.866C196.548 191.765 198.486 192.266 200.035 193.372C201.585 194.477 202.521 196.039 202.844 198.058L198.63 199.345C198.536 198.254 198.029 197.393 197.11 196.76C196.207 196.143 195.061 195.865 193.672 195.925L184.657 196.319C182.628 196.407 180.957 195.941 179.646 194.919C178.35 193.896 177.665 192.526 177.59 190.809C177.539 189.654 177.758 188.566 178.245 187.543C178.747 186.505 179.455 185.708 180.369 185.152C179.264 184.214 178.387 183.095 177.736 181.794C177.1 180.493 176.749 179.077 176.682 177.547C176.55 174.519 177.501 171.952 179.536 169.845C181.586 167.722 184.204 166.592 187.388 166.453C189.558 166.358 191.579 166.801 193.452 167.783C193.629 166.477 194.201 165.42 195.167 164.611C196.132 163.803 197.357 163.366 198.84 163.302L200.713 163.22L200.881 167.06L199.241 167.131C198.352 167.17 197.637 167.452 197.097 167.976C196.571 168.484 196.319 169.144 196.338 169.956C198.013 171.775 198.907 173.981 199.02 176.572C199.152 179.585 198.193 182.16 196.144 184.299C194.094 186.421 191.484 187.552 188.315 187.69C186.395 187.774 184.654 187.467 183.09 186.769C182.62 187.102 182.255 187.525 181.996 188.036C181.752 188.532 181.642 189.045 181.665 189.576C181.702 190.434 182.052 191.107 182.715 191.594C183.377 192.082 184.224 192.303 185.254 192.258L194.222 191.866ZM187.56 170.386C185.577 170.473 183.958 171.185 182.703 172.522C181.447 173.844 180.861 175.457 180.944 177.361C181.028 179.281 181.753 180.853 183.12 182.075C184.502 183.282 186.177 183.842 188.144 183.756C190.11 183.67 191.722 182.967 192.978 181.645C194.249 180.307 194.843 178.678 194.759 176.758C194.676 174.854 193.943 173.298 192.561 172.092C191.194 170.869 189.527 170.3 187.56 170.386ZM216.851 165.166C219.832 165.036 222.268 165.837 224.158 167.568C226.063 169.299 227.082 171.664 227.212 174.661L227.872 189.764L223.751 189.943L223.148 176.128C223.052 173.943 222.328 172.223 220.975 170.968C219.622 169.698 217.86 169.11 215.69 169.205C213.427 169.304 211.645 170.054 210.346 171.456C209.046 172.858 208.445 174.659 208.541 176.86L209.14 190.581L205.019 190.761L203.951 166.316L208.072 166.136L208.235 169.859C210.092 166.9 212.964 165.336 216.851 165.166Z" fill="black"/>
<path d="M262.383 155.726L267.615 167.809L280.108 171.968L268.025 177.2L263.866 189.693L258.634 177.61L246.141 173.451L258.224 168.219L262.383 155.726Z" fill="#4FC3F7"/>
<path d="M324.103 185.562L320.545 177.694L304.342 178.402L301.484 186.55L296.777 186.755L308.796 153.082L314.041 152.853L328.95 185.35L324.103 185.562ZM305.803 174.256L318.752 173.69L311.556 157.723L305.803 174.256ZM345.261 159.56C348.757 159.407 351.73 160.505 354.179 162.853C356.627 165.202 357.931 168.195 358.09 171.832C358.248 175.469 357.211 178.564 354.976 181.117C352.742 183.67 349.876 185.023 346.379 185.176C344.381 185.263 342.543 184.905 340.866 184.103C339.188 183.285 337.792 182.118 336.678 180.602L337.268 194.113L333.147 194.293L331.682 160.739L335.803 160.559L335.995 164.961C336.973 163.354 338.262 162.078 339.863 161.133C341.464 160.171 343.263 159.647 345.261 159.56ZM345.433 181.229C347.946 181.119 350.001 180.185 351.598 178.426C353.194 176.667 353.938 174.531 353.828 172.018C353.718 169.505 352.791 167.442 351.048 165.829C349.304 164.216 347.175 163.464 344.662 163.574C342.164 163.683 340.125 164.617 338.544 166.375C336.963 168.133 336.227 170.269 336.337 172.782C336.447 175.295 337.366 177.358 339.094 178.972C340.822 180.586 342.935 181.338 345.433 181.229ZM375.918 158.221C379.415 158.068 382.387 159.166 384.836 161.515C387.284 163.864 388.588 166.856 388.747 170.494C388.905 174.131 387.868 177.226 385.633 179.779C383.399 182.332 380.533 183.685 377.036 183.837C375.038 183.925 373.201 183.567 371.523 182.764C369.845 181.946 368.449 180.779 367.335 179.264L367.925 192.775L363.804 192.954L362.339 159.401L366.46 159.221L366.652 163.623C367.63 162.016 368.92 160.74 370.52 159.794C372.121 158.833 373.92 158.308 375.918 158.221ZM376.09 179.891C378.603 179.781 380.658 178.847 382.255 177.088C383.851 175.329 384.595 173.193 384.485 170.68C384.375 168.166 383.449 166.103 381.705 164.49C379.961 162.877 377.832 162.126 375.319 162.235C372.821 162.345 370.782 163.278 369.201 165.036C367.62 166.794 366.884 168.93 366.994 171.443C367.104 173.957 368.023 176.02 369.751 177.634C371.479 179.247 373.592 180 376.09 179.891ZM416.884 148.362C420.037 148.225 422.925 148.818 425.548 150.142C428.17 151.467 430.263 153.362 431.825 155.827C433.387 158.277 434.235 161.055 434.371 164.162C434.506 167.268 433.904 170.117 432.562 172.709C431.221 175.302 429.302 177.372 426.804 178.92C424.307 180.468 421.482 181.31 418.328 181.448L405.567 182.005L404.122 148.92L416.884 148.362ZM418.101 177.329C421.598 177.176 424.473 175.862 426.727 173.387C428.98 170.911 430.03 167.901 429.875 164.358C429.773 162.032 429.143 159.948 427.983 158.106C426.839 156.248 425.298 154.822 423.363 153.827C421.442 152.832 419.327 152.385 417.017 152.485L408.704 152.848L409.789 177.692L418.101 177.329ZM463.648 167.223C463.658 167.457 463.646 168.068 463.611 169.055L442.561 169.974C443.076 172.11 444.174 173.806 445.856 175.062C447.552 176.301 449.579 176.87 451.936 176.767C453.684 176.69 455.276 176.253 456.712 175.456C458.146 174.642 459.252 173.632 460.028 172.425L462.967 174.737C461.806 176.445 460.263 177.819 458.338 178.857C456.428 179.894 454.303 180.464 451.961 180.566C448.137 180.733 444.898 179.639 442.246 177.284C439.594 174.928 438.188 171.916 438.028 168.248C437.924 165.875 438.384 163.697 439.408 161.713C440.447 159.713 441.925 158.115 443.844 156.921C445.762 155.727 447.924 155.077 450.328 154.972C452.716 154.868 454.91 155.327 456.91 156.351C458.909 157.374 460.506 158.845 461.7 160.763C462.894 162.666 463.543 164.819 463.648 167.223ZM450.446 158.768C448.323 158.86 446.518 159.604 445.031 160.998C443.543 162.377 442.649 164.121 442.35 166.229L459.186 165.494C458.703 163.388 457.66 161.721 456.058 160.493C454.456 159.249 452.585 158.674 450.446 158.768ZM476.788 179.482C472.838 179.655 469.473 178.519 466.692 176.076L468.857 173.002C470.944 174.959 473.51 175.872 476.554 175.739C478.209 175.667 479.553 175.303 480.588 174.648C481.623 173.977 482.116 173.103 482.069 172.026C482.049 171.573 481.915 171.172 481.665 170.824C481.43 170.459 481.151 170.166 480.829 169.945C480.522 169.724 480.059 169.517 479.441 169.325C478.838 169.117 478.307 168.968 477.85 168.879C477.407 168.773 476.776 168.636 475.955 168.469C475.198 168.314 474.598 168.192 474.156 168.102C473.714 167.996 473.136 167.833 472.422 167.614C471.725 167.395 471.152 167.177 470.705 166.962C470.273 166.746 469.791 166.462 469.26 166.11C468.743 165.742 468.328 165.353 468.013 164.945C467.712 164.52 467.448 164.015 467.219 163.431C467.005 162.83 466.883 162.171 466.851 161.453C466.785 159.923 467.164 158.585 467.99 157.439C468.816 156.292 469.912 155.431 471.279 154.855C472.645 154.264 474.186 153.931 475.904 153.856C479.431 153.702 482.47 154.687 485.018 156.813L482.832 159.934C480.96 158.264 478.721 157.486 476.114 157.6C474.631 157.665 473.41 158 472.451 158.605C471.492 159.209 471.035 160.019 471.079 161.034C471.1 161.502 471.235 161.919 471.486 162.283C471.736 162.632 472.014 162.917 472.321 163.138C472.643 163.359 473.122 163.572 473.756 163.779C474.39 163.97 474.921 164.119 475.348 164.226C475.789 164.316 476.436 164.444 477.288 164.61C478.029 164.75 478.621 164.873 479.064 164.978C479.521 165.068 480.098 165.215 480.795 165.419C481.492 165.623 482.057 165.833 482.489 166.049C482.935 166.248 483.416 166.524 483.932 166.877C484.448 167.23 484.856 167.611 485.155 168.02C485.455 168.43 485.711 168.934 485.925 169.535C486.154 170.119 486.284 170.763 486.314 171.465C486.417 173.822 485.57 175.72 483.771 177.16C481.972 178.583 479.644 179.357 476.788 179.482ZM491.902 148.841C491.106 148.875 490.431 148.647 489.878 148.155C489.324 147.647 489.03 147.003 488.996 146.223C488.961 145.427 489.198 144.759 489.706 144.221C490.214 143.683 490.867 143.396 491.663 143.361C492.443 143.327 493.102 143.557 493.64 144.049C494.178 144.542 494.464 145.186 494.498 145.982C494.533 146.763 494.296 147.43 493.788 147.984C493.296 148.522 492.667 148.807 491.902 148.841ZM491.122 178.27L490.055 153.824L494.176 153.644L495.243 178.09L491.122 178.27ZM516.913 177.777C519.239 177.676 521.177 178.177 522.727 179.283C524.276 180.388 525.213 181.95 525.535 183.969L521.322 185.256C521.227 184.165 520.72 183.304 519.801 182.671C518.899 182.054 517.752 181.776 516.363 181.836L507.348 182.23C505.319 182.318 503.649 181.852 502.337 180.83C501.041 179.807 500.356 178.437 500.281 176.72C500.231 175.565 500.449 174.477 500.936 173.454C501.438 172.416 502.146 171.619 503.06 171.062C501.956 170.125 501.078 169.006 500.427 167.705C499.791 166.404 499.44 164.988 499.374 163.458C499.241 160.43 500.193 157.863 502.228 155.756C504.278 153.633 506.895 152.503 510.079 152.364C512.249 152.269 514.271 152.712 516.143 153.694C516.321 152.388 516.892 151.331 517.858 150.522C518.824 149.714 520.048 149.277 521.531 149.213L523.404 149.131L523.572 152.971L521.933 153.042C521.043 153.081 520.328 153.363 519.788 153.887C519.263 154.395 519.01 155.055 519.03 155.867C520.705 157.686 521.598 159.892 521.712 162.483C521.843 165.496 520.884 168.071 518.835 170.21C516.785 172.332 514.176 173.463 511.007 173.601C509.087 173.685 507.345 173.378 505.782 172.68C505.312 173.013 504.947 173.436 504.688 173.947C504.443 174.443 504.333 174.956 504.356 175.487C504.394 176.345 504.744 177.018 505.406 177.505C506.069 177.993 506.915 178.214 507.945 178.169L516.913 177.777ZM510.251 156.297C508.269 156.384 506.65 157.096 505.394 158.433C504.138 159.755 503.552 161.368 503.635 163.272C503.719 165.192 504.444 166.764 505.812 167.986C507.194 169.193 508.868 169.753 510.835 169.667C512.802 169.581 514.413 168.878 515.669 167.556C516.94 166.218 517.534 164.589 517.45 162.669C517.367 160.765 516.634 159.209 515.252 158.003C513.885 156.78 512.218 156.211 510.251 156.297ZM539.542 151.077C542.524 150.947 544.96 151.748 546.849 153.479C548.755 155.21 549.773 157.575 549.904 160.572L550.563 175.675L546.442 175.854L545.839 162.039C545.744 159.854 545.019 158.134 543.667 156.879C542.313 155.609 540.551 155.021 538.381 155.116C536.118 155.215 534.337 155.965 533.037 157.367C531.738 158.769 531.136 160.57 531.232 162.771L531.831 176.492L527.71 176.672L526.643 152.227L530.764 152.047L530.926 155.77C532.783 152.811 535.655 151.247 539.542 151.077Z" fill="black"/>
<path d="M585.076 141.637L590.308 153.72L602.801 157.879L590.718 163.111L586.559 175.604L581.327 163.521L568.833 159.362L580.917 154.13L585.076 141.637Z" fill="#4FC3F7"/>
<path d="M633.666 138.897C636.82 138.76 639.708 139.353 642.33 140.677C644.953 142.002 647.046 143.897 648.608 146.362C650.169 148.812 651.018 151.59 651.154 154.697C651.289 157.803 650.686 160.652 649.345 163.245C648.004 165.837 646.084 167.907 643.587 169.455C641.09 171.003 638.264 171.845 635.111 171.983L622.35 172.54L620.905 139.455L633.666 138.897ZM634.884 167.864C638.381 167.711 641.256 166.397 643.51 163.922C645.763 161.446 646.813 158.436 646.658 154.893C646.556 152.567 645.926 150.483 644.766 148.641C643.621 146.783 642.081 145.357 640.145 144.362C638.225 143.367 636.11 142.92 633.8 143.021L625.487 143.383L626.572 168.227L634.884 167.864ZM676.104 145.701L680.225 145.521L681.292 169.967L677.171 170.147L676.979 165.745C676.001 167.351 674.705 168.636 673.089 169.598C671.488 170.543 669.688 171.06 667.69 171.147C665.396 171.247 663.287 170.784 661.366 169.758C659.444 168.715 657.909 167.242 656.762 165.337C655.631 163.416 655.013 161.261 654.908 158.873C654.804 156.484 655.232 154.292 656.193 152.295C657.169 150.282 658.569 148.68 660.394 147.49C662.218 146.284 664.277 145.631 666.572 145.531C668.57 145.444 670.408 145.809 672.086 146.627C673.779 147.429 675.182 148.588 676.296 150.103L676.104 145.701ZM668.289 167.133C670.787 167.024 672.826 166.09 674.407 164.332C676.004 162.573 676.747 160.437 676.638 157.924C676.528 155.411 675.601 153.348 673.857 151.735C672.129 150.121 670.016 149.369 667.518 149.478C665.005 149.587 662.95 150.522 661.353 152.281C659.757 154.039 659.013 156.175 659.123 158.689C659.233 161.202 660.16 163.265 661.903 164.878C663.647 166.491 665.776 167.243 668.289 167.133ZM695.631 169.927C691.682 170.1 688.317 168.964 685.535 166.521L687.7 163.447C689.788 165.404 692.353 166.317 695.397 166.184C697.052 166.112 698.397 165.748 699.432 165.093C700.466 164.422 700.96 163.548 700.912 162.471C700.893 162.018 700.758 161.618 700.508 161.269C700.273 160.904 699.995 160.611 699.672 160.39C699.365 160.169 698.903 159.963 698.284 159.771C697.681 159.562 697.151 159.413 696.693 159.324C696.251 159.218 695.619 159.081 694.798 158.914C694.041 158.759 693.441 158.637 692.999 158.547C692.557 158.441 691.979 158.279 691.266 158.059C690.568 157.84 689.995 157.622 689.548 157.407C689.116 157.191 688.635 156.908 688.103 156.555C687.587 156.187 687.171 155.798 686.856 155.39C686.556 154.965 686.291 154.461 686.063 153.876C685.849 153.276 685.726 152.616 685.695 151.898C685.628 150.368 686.007 149.03 686.833 147.884C687.659 146.737 688.755 145.876 690.122 145.3C691.488 144.709 693.03 144.376 694.747 144.301C698.275 144.147 701.313 145.132 703.861 147.258L701.675 150.379C699.803 148.709 697.564 147.931 694.957 148.045C693.474 148.11 692.253 148.445 691.294 149.05C690.336 149.655 689.878 150.464 689.923 151.479C689.943 151.947 690.078 152.364 690.329 152.728C690.579 153.077 690.857 153.362 691.164 153.583C691.486 153.804 691.965 154.017 692.6 154.224C693.234 154.415 693.764 154.564 694.191 154.671C694.633 154.761 695.28 154.889 696.131 155.055C696.873 155.195 697.464 155.318 697.907 155.424C698.364 155.513 698.942 155.66 699.639 155.864C700.336 156.068 700.9 156.278 701.332 156.494C701.778 156.693 702.26 156.969 702.776 157.322C703.292 157.675 703.699 158.056 703.999 158.465C704.298 158.875 704.555 159.38 704.768 159.98C704.997 160.564 705.127 161.208 705.158 161.91C705.261 164.267 704.413 166.166 702.615 167.605C700.816 169.028 698.488 169.802 695.631 169.927ZM721.798 143.12C724.78 142.99 727.215 143.79 729.105 145.522C731.01 147.253 732.029 149.617 732.159 152.614L732.819 167.717L728.698 167.897L728.095 154.082C727.999 151.897 727.275 150.177 725.922 148.922C724.569 147.652 722.807 147.064 720.637 147.159C718.374 147.257 716.592 148.008 715.293 149.409C713.993 150.811 713.392 152.613 713.488 154.814L714.087 168.535L709.966 168.715L708.458 134.177L712.579 133.998L713.188 147.953C715.041 144.9 717.911 143.289 721.798 143.12ZM751.308 141.831C754.804 141.679 757.777 142.777 760.225 145.125C762.674 147.474 763.978 150.467 764.136 154.104C764.295 157.741 763.257 160.836 761.023 163.389C758.788 165.942 755.923 167.295 752.426 167.447C750.428 167.535 748.59 167.177 746.913 166.374C745.235 165.556 743.839 164.389 742.725 162.874L742.917 167.276L738.796 167.456L737.288 132.919L741.409 132.739L742.042 147.233C743.02 145.626 744.309 144.35 745.91 143.404C747.51 142.443 749.31 141.919 751.308 141.831ZM751.48 163.501C753.993 163.391 756.048 162.457 757.644 160.698C759.241 158.939 759.985 156.803 759.875 154.29C759.765 151.777 758.838 149.713 757.094 148.1C755.351 146.487 753.222 145.736 750.709 145.846C748.211 145.955 746.172 146.888 744.591 148.646C743.01 150.405 742.274 152.54 742.384 155.053C742.493 157.567 743.412 159.63 745.141 161.244C746.869 162.857 748.982 163.61 751.48 163.501ZM780.929 166.203C778.494 166.309 776.253 165.852 774.206 164.831C772.159 163.794 770.523 162.325 769.299 160.424C768.089 158.506 767.432 156.353 767.327 153.964C767.223 151.576 767.69 149.382 768.729 147.381C769.783 145.365 771.285 143.759 773.234 142.563C775.183 141.352 777.375 140.693 779.811 140.587C783.495 140.426 786.631 141.517 789.22 143.859C791.825 146.201 793.206 149.19 793.365 152.828C793.524 156.465 792.408 159.563 790.017 162.123C787.642 164.682 784.613 166.042 780.929 166.203ZM780.755 162.222C783.253 162.113 785.292 161.18 786.873 159.422C788.47 157.663 789.213 155.527 789.104 153.014C788.994 150.5 788.067 148.437 786.323 146.824C784.595 145.211 782.482 144.458 779.984 144.567C777.471 144.677 775.416 145.611 773.819 147.37C772.223 149.129 771.479 151.265 771.589 153.778C771.699 156.292 772.626 158.355 774.369 159.968C776.113 161.581 778.242 162.332 780.755 162.222ZM817.775 139.516L821.896 139.336L822.964 163.781L818.843 163.961L818.65 159.559C817.673 161.166 816.376 162.45 814.76 163.412C813.159 164.358 811.36 164.874 809.362 164.962C807.067 165.062 804.959 164.599 803.037 163.572C801.115 162.53 799.58 161.056 798.434 159.152C797.302 157.23 796.684 155.076 796.58 152.687C796.475 150.299 796.904 148.106 797.864 146.109C798.84 144.096 800.24 142.494 802.065 141.304C803.889 140.099 805.948 139.446 808.243 139.345C810.241 139.258 812.079 139.624 813.757 140.442C815.45 141.244 816.853 142.402 817.967 143.918L817.775 139.516ZM809.96 160.947C812.458 160.838 814.497 159.905 816.078 158.147C817.675 156.388 818.419 154.252 818.309 151.738C818.199 149.225 817.272 147.162 815.528 145.549C813.8 143.936 811.687 143.183 809.19 143.292C806.676 143.402 804.621 144.336 803.025 146.095C801.428 147.854 800.685 149.99 800.794 152.503C800.904 155.016 801.831 157.079 803.575 158.692C805.319 160.305 807.447 161.057 809.96 160.947ZM840.641 138.119L841.461 138.083L841.647 142.344L840.827 142.38C838.251 142.493 836.247 143.339 834.815 144.918C833.397 146.482 832.745 148.543 832.856 151.103L833.39 163.326L829.269 163.506L828.202 139.061L832.323 138.881L832.507 143.095C834.292 139.936 837.004 138.277 840.641 138.119ZM863.897 127.391L868.018 127.211L869.526 161.748L865.405 161.928L865.213 157.526C864.235 159.133 862.938 160.417 861.323 161.379C859.722 162.325 857.922 162.841 855.924 162.929C853.629 163.029 851.521 162.566 849.6 161.539C847.677 160.497 846.143 159.023 844.996 157.119C843.864 155.197 843.246 153.043 843.142 150.654C843.038 148.266 843.466 146.073 844.427 144.076C845.402 142.063 846.803 140.461 848.627 139.271C850.452 138.066 852.511 137.413 854.806 137.312C856.804 137.225 858.642 137.591 860.32 138.409C862.012 139.211 863.416 140.369 864.53 141.885L863.897 127.391ZM856.523 158.914C859.021 158.805 861.06 157.872 862.641 156.114C864.238 154.355 864.981 152.219 864.871 149.705C864.762 147.192 863.835 145.129 862.091 143.516C860.363 141.903 858.25 141.15 855.752 141.259C853.239 141.369 851.184 142.303 849.587 144.062C847.991 145.821 847.247 147.957 847.357 150.47C847.467 152.983 848.393 155.047 850.137 156.659C851.881 158.272 854.01 159.024 856.523 158.914Z" fill="black"/>
<path d="M903.772 127.722L909.004 139.805L921.497 143.964L909.414 149.197L905.255 161.69L900.023 149.607L887.53 145.447L899.613 140.215L903.772 127.722Z" fill="#4FC3F7"/>
<path d="M978.822 123.828L983.388 123.628L974.272 157.175L969.823 157.369L960.44 131.058L953.409 158.086L948.96 158.28L936.956 125.656L941.615 125.452L951.048 152.371L958.264 124.725L962.174 124.554L971.771 151.466L978.822 123.828ZM989.623 127.11C988.827 127.144 988.152 126.916 987.599 126.424C987.045 125.916 986.751 125.272 986.717 124.492C986.682 123.696 986.919 123.028 987.427 122.49C987.935 121.952 988.587 121.665 989.383 121.63C990.164 121.596 990.823 121.826 991.361 122.318C991.898 122.811 992.184 123.455 992.219 124.251C992.253 125.032 992.017 125.699 991.509 126.253C991.016 126.791 990.388 127.076 989.623 127.11ZM988.843 156.539L987.776 132.093L991.897 131.913L992.964 156.359L988.843 156.539ZM1010.59 130.698L1011.41 130.662L1011.6 134.924L1010.78 134.96C1008.21 135.072 1006.2 135.918 1004.77 137.498C1003.35 139.061 1002.7 141.123 1002.81 143.683L1003.34 155.906L999.223 156.086L998.155 131.64L1002.28 131.46L1002.46 135.675C1004.25 132.516 1006.96 130.857 1010.59 130.698ZM1038.62 142.12C1038.63 142.354 1038.62 142.964 1038.58 143.951L1017.53 144.87C1018.05 147.006 1019.14 148.702 1020.83 149.958C1022.52 151.197 1024.55 151.766 1026.91 151.663C1028.65 151.587 1030.25 151.15 1031.68 150.352C1033.12 149.538 1034.22 148.528 1035 147.321L1037.94 149.633C1036.78 151.341 1035.23 152.715 1033.31 153.753C1031.4 154.79 1029.27 155.36 1026.93 155.462C1023.11 155.629 1019.87 154.535 1017.22 152.18C1014.56 149.825 1013.16 146.813 1013 143.144C1012.89 140.772 1013.35 138.593 1014.38 136.609C1015.42 134.609 1016.9 133.012 1018.81 131.817C1020.73 130.623 1022.89 129.974 1025.3 129.869C1027.69 129.764 1029.88 130.224 1031.88 131.247C1033.88 132.27 1035.48 133.741 1036.67 135.659C1037.86 137.562 1038.51 139.716 1038.62 142.12ZM1025.42 133.664C1023.29 133.757 1021.49 134.5 1020 135.894C1018.51 137.273 1017.62 139.017 1017.32 141.126L1034.16 140.391C1033.67 138.285 1032.63 136.618 1031.03 135.39C1029.43 134.146 1027.56 133.571 1025.42 133.664ZM1051.58 122.434C1048.96 122.548 1047.7 123.846 1047.81 126.328L1047.95 129.466L1055 129.158L1055.16 132.881L1048.11 133.189L1049.02 153.912L1044.9 154.092L1043.99 133.369L1039.54 133.563L1039.38 129.84L1043.83 129.646L1043.68 126.227C1043.58 123.902 1044.11 122.088 1045.27 120.786C1046.43 119.484 1048.19 118.781 1050.55 118.678C1052.1 118.611 1053.52 118.885 1054.83 119.5L1054.99 123.153C1053.89 122.622 1052.75 122.383 1051.58 122.434ZM1071.28 128.049L1072.1 128.013L1072.29 132.274L1071.47 132.31C1068.89 132.423 1066.89 133.269 1065.46 134.848C1064.04 136.412 1063.39 138.473 1063.5 141.033L1064.03 153.256L1059.91 153.436L1058.84 128.99L1062.96 128.811L1063.15 133.025C1064.93 129.866 1067.65 128.207 1071.28 128.049ZM1094.98 127.413L1099.1 127.233L1100.17 151.678L1096.05 151.858L1095.86 147.456C1094.88 149.063 1093.58 150.347 1091.96 151.309C1090.36 152.255 1088.56 152.771 1086.57 152.859C1084.27 152.959 1082.16 152.496 1080.24 151.469C1078.32 150.427 1076.79 148.953 1075.64 147.049C1074.51 145.127 1073.89 142.973 1073.78 140.584C1073.68 138.196 1074.11 136.003 1075.07 134.006C1076.04 131.993 1077.44 130.391 1079.27 129.201C1081.09 127.996 1083.15 127.343 1085.45 127.242C1087.45 127.155 1089.28 127.521 1090.96 128.339C1092.65 129.141 1094.06 130.299 1095.17 131.815L1094.98 127.413ZM1087.17 148.844C1089.66 148.735 1091.7 147.802 1093.28 146.044C1094.88 144.285 1095.62 142.149 1095.51 139.635C1095.4 137.122 1094.48 135.059 1092.73 133.446C1091 131.833 1088.89 131.08 1086.39 131.189C1083.88 131.299 1081.83 132.233 1080.23 133.992C1078.63 135.751 1077.89 137.887 1078 140.4C1078.11 142.913 1079.04 144.976 1080.78 146.589C1082.52 148.202 1084.65 148.954 1087.17 148.844ZM1134.58 125.097C1137.39 124.975 1139.67 125.72 1141.41 127.333C1143.17 128.929 1144.11 131.133 1144.23 133.942L1144.92 149.724L1140.8 149.904L1140.16 135.27C1140.08 133.318 1139.42 131.791 1138.2 130.687C1137 129.566 1135.42 129.049 1133.49 129.133C1131.49 129.22 1129.91 129.884 1128.74 131.123C1127.58 132.363 1127.04 133.966 1127.12 135.933L1127.76 150.474L1123.64 150.654L1123 136.019C1122.91 134.068 1122.26 132.54 1121.04 131.436C1119.83 130.316 1118.26 129.798 1116.33 129.882C1114.33 129.97 1112.75 130.633 1111.58 131.873C1110.41 133.112 1109.87 134.715 1109.96 136.682L1110.59 151.223L1106.47 151.403L1105.41 126.957L1109.53 126.778L1109.67 130.079C1111.42 127.407 1114.03 125.995 1117.51 125.843C1119.41 125.759 1121.1 126.108 1122.55 126.889C1124.01 127.67 1125.13 128.802 1125.91 130.285C1126.77 128.699 1127.93 127.46 1129.41 126.566C1130.91 125.672 1132.63 125.182 1134.58 125.097ZM1174.34 136.194C1174.35 136.428 1174.34 137.038 1174.3 138.025L1153.25 138.944C1153.77 141.08 1154.87 142.776 1156.55 144.032C1158.25 145.272 1160.27 145.84 1162.63 145.737C1164.38 145.661 1165.97 145.224 1167.41 144.426C1168.84 143.613 1169.95 142.603 1170.72 141.396L1173.66 143.707C1172.5 145.416 1170.96 146.789 1169.03 147.827C1167.12 148.864 1165 149.434 1162.66 149.537C1158.83 149.703 1155.59 148.609 1152.94 146.254C1150.29 143.899 1148.88 140.887 1148.72 137.218C1148.62 134.846 1149.08 132.667 1150.1 130.683C1151.14 128.683 1152.62 127.086 1154.54 125.892C1156.46 124.697 1158.62 124.048 1161.02 123.943C1163.41 123.838 1165.6 124.298 1167.6 125.321C1169.6 126.344 1171.2 127.815 1172.39 129.733C1173.59 131.636 1174.24 133.79 1174.34 136.194ZM1161.14 127.738C1159.02 127.831 1157.21 128.574 1155.72 129.969C1154.24 131.347 1153.34 133.091 1153.04 135.2L1169.88 134.465C1169.4 132.359 1168.35 130.692 1166.75 129.464C1165.15 128.22 1163.28 127.645 1161.14 127.738Z" fill="black"/>
<path d="M1207.48 114.462L1212.71 126.545L1225.21 130.704L1213.12 135.936L1208.97 148.429L1203.73 136.346L1191.24 132.187L1203.32 126.955L1207.48 114.462Z" fill="#4FC3F7"/>
<path d="M1257.5 145.396C1254.98 145.505 1252.67 145.028 1250.56 143.962C1248.47 142.897 1246.79 141.382 1245.53 139.42C1244.27 137.442 1243.59 135.211 1243.48 132.729L1242.59 112.311L1246.97 112.12L1247.85 132.445C1247.97 135.036 1248.92 137.168 1250.71 138.842C1252.52 140.499 1254.72 141.271 1257.31 141.157C1259.92 141.044 1262.05 140.083 1263.71 138.274C1265.36 136.45 1266.14 134.243 1266.02 131.651L1265.14 111.327L1269.49 111.137L1270.38 131.555C1270.49 134.037 1270 136.318 1268.92 138.398C1267.84 140.463 1266.29 142.118 1264.28 143.363C1262.29 144.608 1260.03 145.285 1257.5 145.396ZM1284.95 144.197C1281 144.37 1277.63 143.234 1274.85 140.791L1277.02 137.717C1279.1 139.674 1281.67 140.587 1284.71 140.454C1286.37 140.382 1287.71 140.018 1288.75 139.363C1289.78 138.692 1290.27 137.818 1290.23 136.741C1290.21 136.288 1290.07 135.888 1289.82 135.539C1289.59 135.174 1289.31 134.881 1288.99 134.66C1288.68 134.439 1288.22 134.232 1287.6 134.041C1287 133.832 1286.47 133.683 1286.01 133.594C1285.57 133.488 1284.93 133.351 1284.11 133.184C1283.36 133.029 1282.76 132.907 1282.31 132.817C1281.87 132.711 1281.29 132.549 1280.58 132.329C1279.88 132.11 1279.31 131.892 1278.86 131.677C1278.43 131.461 1277.95 131.177 1277.42 130.825C1276.9 130.457 1276.49 130.068 1276.17 129.66C1275.87 129.235 1275.61 128.73 1275.38 128.146C1275.16 127.546 1275.04 126.886 1275.01 126.168C1274.94 124.638 1275.32 123.3 1276.15 122.154C1276.97 121.007 1278.07 120.146 1279.44 119.57C1280.8 118.979 1282.34 118.646 1284.06 118.571C1287.59 118.417 1290.63 119.402 1293.18 121.528L1290.99 124.649C1289.12 122.979 1286.88 122.201 1284.27 122.315C1282.79 122.38 1281.57 122.715 1280.61 123.32C1279.65 123.924 1279.19 124.734 1279.24 125.749C1279.26 126.217 1279.39 126.634 1279.64 126.998C1279.89 127.347 1280.17 127.632 1280.48 127.853C1280.8 128.074 1281.28 128.287 1281.91 128.494C1282.55 128.685 1283.08 128.834 1283.51 128.941C1283.95 129.031 1284.59 129.159 1285.45 129.325C1286.19 129.465 1286.78 129.588 1287.22 129.693C1287.68 129.783 1288.26 129.93 1288.95 130.134C1289.65 130.338 1290.22 130.548 1290.65 130.764C1291.09 130.963 1291.57 131.239 1292.09 131.592C1292.61 131.945 1293.01 132.326 1293.31 132.735C1293.61 133.145 1293.87 133.649 1294.08 134.25C1294.31 134.834 1294.44 135.478 1294.47 136.18C1294.58 138.537 1293.73 140.436 1291.93 141.875C1290.13 143.298 1287.8 144.072 1284.95 144.197ZM1322.77 129.713C1322.78 129.947 1322.77 130.558 1322.73 131.545L1301.68 132.464C1302.2 134.6 1303.3 136.295 1304.98 137.551C1306.67 138.791 1308.7 139.359 1311.06 139.257C1312.81 139.18 1314.4 138.743 1315.83 137.945C1317.27 137.132 1318.37 136.122 1319.15 134.915L1322.09 137.227C1320.93 138.935 1319.39 140.308 1317.46 141.346C1315.55 142.384 1313.43 142.954 1311.08 143.056C1307.26 143.223 1304.02 142.129 1301.37 139.773C1298.72 137.418 1297.31 134.406 1297.15 130.738C1297.05 128.365 1297.51 126.187 1298.53 124.203C1299.57 122.202 1301.05 120.605 1302.97 119.411C1304.89 118.217 1307.05 117.567 1309.45 117.462C1311.84 117.358 1314.03 117.817 1316.03 118.841C1318.03 119.864 1319.63 121.334 1320.82 123.253C1322.02 125.156 1322.67 127.309 1322.77 129.713ZM1309.57 121.258C1307.45 121.35 1305.64 122.094 1304.15 123.488C1302.67 124.867 1301.77 126.611 1301.47 128.719L1318.31 127.984C1317.83 125.878 1316.78 124.211 1315.18 122.983C1313.58 121.739 1311.71 121.164 1309.57 121.258ZM1339.25 116.349L1340.07 116.313L1340.25 120.575L1339.44 120.61C1336.86 120.723 1334.86 121.569 1333.42 123.149C1332.01 124.712 1331.35 126.774 1331.46 129.334L1332 141.556L1327.88 141.736L1326.81 117.291L1330.93 117.111L1331.11 121.326C1332.9 118.167 1335.61 116.508 1339.25 116.349ZM1375.54 139.655L1365.09 126.951L1360.24 127.162L1360.81 140.298L1356.41 140.49L1354.97 107.405L1368.38 106.819C1371.32 106.691 1373.81 107.544 1375.86 109.378C1377.93 111.212 1379.02 113.564 1379.15 116.437C1379.26 119.106 1378.47 121.408 1376.78 123.344C1375.09 125.263 1372.9 126.375 1370.21 126.68L1380.86 139.423L1375.54 139.655ZM1359.55 111.334L1360.07 123.322L1368.99 122.933C1370.68 122.859 1372.06 122.228 1373.13 121.039C1374.21 119.851 1374.71 118.398 1374.63 116.681C1374.56 114.964 1373.93 113.56 1372.76 112.469C1371.58 111.379 1370.15 110.871 1368.47 110.944L1359.55 111.334ZM1407.93 125.995C1407.94 126.229 1407.93 126.839 1407.9 127.826L1386.85 128.745C1387.36 130.881 1388.46 132.577 1390.14 133.833C1391.84 135.073 1393.87 135.641 1396.22 135.538C1397.97 135.462 1399.56 135.025 1401 134.227C1402.43 133.414 1403.54 132.404 1404.31 131.197L1407.25 133.508C1406.09 135.217 1404.55 136.59 1402.62 137.628C1400.71 138.666 1398.59 139.235 1396.25 139.338C1392.42 139.505 1389.19 138.41 1386.53 136.055C1383.88 133.7 1382.47 130.688 1382.31 127.02C1382.21 124.647 1382.67 122.468 1383.69 120.484C1384.73 118.484 1386.21 116.887 1388.13 115.693C1390.05 114.498 1392.21 113.849 1394.61 113.744C1397 113.64 1399.2 114.099 1401.2 115.122C1403.2 116.145 1404.79 117.616 1405.99 119.535C1407.18 121.437 1407.83 123.591 1407.93 125.995ZM1394.73 117.539C1392.61 117.632 1390.8 118.375 1389.32 119.77C1387.83 121.148 1386.94 122.892 1386.64 125.001L1403.47 124.266C1402.99 122.16 1401.95 120.493 1400.34 119.265C1398.74 118.021 1396.87 117.446 1394.73 117.539ZM1421.07 138.254C1417.13 138.426 1413.76 137.291 1410.98 134.847L1413.14 131.773C1415.23 133.731 1417.8 134.643 1420.84 134.51C1422.5 134.438 1423.84 134.074 1424.88 133.419C1425.91 132.748 1426.4 131.875 1426.36 130.797C1426.34 130.345 1426.2 129.944 1425.95 129.595C1425.72 129.23 1425.44 128.937 1425.12 128.717C1424.81 128.496 1424.35 128.289 1423.73 128.097C1423.12 127.889 1422.59 127.74 1422.14 127.65C1421.69 127.545 1421.06 127.408 1420.24 127.24C1419.48 127.086 1418.88 126.963 1418.44 126.873C1418 126.767 1417.42 126.605 1416.71 126.386C1416.01 126.166 1415.44 125.949 1414.99 125.734C1414.56 125.518 1414.08 125.234 1413.55 124.882C1413.03 124.513 1412.61 124.125 1412.3 123.716C1412 123.292 1411.73 122.787 1411.51 122.203C1411.29 121.602 1411.17 120.943 1411.14 120.225C1411.07 118.695 1411.45 117.357 1412.28 116.21C1413.1 115.064 1414.2 114.203 1415.57 113.627C1416.93 113.035 1418.47 112.702 1420.19 112.627C1423.72 112.473 1426.76 113.459 1429.3 115.584L1427.12 118.706C1425.25 117.036 1423.01 116.258 1420.4 116.372C1418.92 116.436 1417.7 116.771 1416.74 117.376C1415.78 117.981 1415.32 118.791 1415.37 119.805C1415.39 120.274 1415.52 120.69 1415.77 121.055C1416.02 121.403 1416.3 121.688 1416.61 121.91C1416.93 122.13 1417.41 122.344 1418.04 122.551C1418.68 122.742 1419.21 122.891 1419.63 122.997C1420.08 123.087 1420.72 123.216 1421.57 123.382C1422.32 123.521 1422.91 123.644 1423.35 123.75C1423.81 123.839 1424.38 123.986 1425.08 124.19C1425.78 124.395 1426.34 124.605 1426.78 124.82C1427.22 125.02 1427.7 125.296 1428.22 125.649C1428.73 126.002 1429.14 126.383 1429.44 126.792C1429.74 127.201 1430 127.706 1430.21 128.307C1430.44 128.891 1430.57 129.534 1430.6 130.237C1430.7 132.594 1429.86 134.492 1428.06 135.931C1426.26 137.355 1423.93 138.129 1421.07 138.254ZM1458.9 123.77C1458.91 124.004 1458.9 124.614 1458.86 125.601L1437.81 126.52C1438.33 128.656 1439.43 130.352 1441.11 131.608C1442.8 132.848 1444.83 133.416 1447.19 133.313C1448.94 133.237 1450.53 132.8 1451.96 132.002C1453.4 131.189 1454.5 130.178 1455.28 128.972L1458.22 131.283C1457.06 132.992 1455.51 134.365 1453.59 135.403C1451.68 136.44 1449.55 137.01 1447.21 137.112C1443.39 137.279 1440.15 136.185 1437.5 133.83C1434.85 131.475 1433.44 128.463 1433.28 124.794C1433.18 122.422 1433.64 120.243 1434.66 118.259C1435.7 116.259 1437.18 114.662 1439.1 113.467C1441.01 112.273 1443.17 111.624 1445.58 111.519C1447.97 111.414 1450.16 111.874 1452.16 112.897C1454.16 113.92 1455.76 115.391 1456.95 117.309C1458.15 119.212 1458.79 121.366 1458.9 123.77ZM1445.7 115.314C1443.57 115.407 1441.77 116.15 1440.28 117.545C1438.79 118.923 1437.9 120.667 1437.6 122.776L1454.44 122.041C1453.95 119.935 1452.91 118.268 1451.31 117.04C1449.71 115.796 1447.84 115.221 1445.7 115.314ZM1483.17 110.464L1487.29 110.284L1488.36 134.73L1484.24 134.909L1484.04 130.507C1483.07 132.114 1481.77 133.398 1480.15 134.36C1478.55 135.306 1476.75 135.823 1474.76 135.91C1472.46 136.01 1470.35 135.547 1468.43 134.52C1466.51 133.478 1464.97 132.005 1463.83 130.1C1462.7 128.179 1462.08 126.024 1461.97 123.635C1461.87 121.247 1462.3 119.054 1463.26 117.058C1464.23 115.044 1465.63 113.443 1467.46 112.253C1469.28 111.047 1471.34 110.394 1473.64 110.294C1475.63 110.206 1477.47 110.572 1479.15 111.39C1480.84 112.192 1482.25 113.351 1483.36 114.866L1483.17 110.464ZM1475.35 131.896C1477.85 131.787 1479.89 130.853 1481.47 129.095C1483.07 127.336 1483.81 125.2 1483.7 122.687C1483.59 120.174 1482.67 118.11 1480.92 116.497C1479.19 114.884 1477.08 114.131 1474.58 114.241C1472.07 114.35 1470.02 115.285 1468.42 117.043C1466.82 118.802 1466.08 120.938 1466.19 123.451C1466.3 125.965 1467.22 128.028 1468.97 129.641C1470.71 131.254 1472.84 132.005 1475.35 131.896ZM1506.03 109.067L1506.85 109.031L1507.04 113.293L1506.22 113.328C1503.65 113.441 1501.64 114.287 1500.21 115.867C1498.79 117.43 1498.14 119.492 1498.25 122.052L1498.78 134.274L1494.66 134.454L1493.6 110.009L1497.72 109.829L1497.9 114.044C1499.69 110.885 1502.4 109.226 1506.03 109.067ZM1522.04 133.845C1519.61 133.952 1517.37 133.494 1515.32 132.473C1513.27 131.436 1511.64 129.967 1510.41 128.066C1509.2 126.148 1508.55 123.995 1508.44 121.607C1508.34 119.218 1508.81 117.024 1509.84 115.024C1510.9 113.007 1512.4 111.401 1514.35 110.205C1516.3 108.994 1518.49 108.335 1520.93 108.229C1523.33 108.124 1525.54 108.583 1527.55 109.605C1529.57 110.612 1531.17 112.036 1532.36 113.876L1528.87 116.187C1528.07 114.893 1526.97 113.892 1525.6 113.186C1524.22 112.464 1522.72 112.139 1521.1 112.21C1518.59 112.319 1516.53 113.254 1514.93 115.012C1513.34 116.771 1512.59 118.907 1512.7 121.421C1512.81 123.934 1513.74 125.997 1515.48 127.61C1517.23 129.223 1519.36 129.974 1521.87 129.865C1523.49 129.794 1524.96 129.339 1526.27 128.5C1527.58 127.661 1528.58 126.561 1529.27 125.202L1532.94 127.199C1531.92 129.152 1530.44 130.726 1528.5 131.921C1526.59 133.1 1524.43 133.741 1522.04 133.845ZM1549.31 106.99C1552.29 106.86 1554.73 107.66 1556.62 109.392C1558.52 111.123 1559.54 113.487 1559.67 116.484L1560.33 131.587L1556.21 131.767L1555.61 117.952C1555.51 115.767 1554.79 114.047 1553.44 112.792C1552.08 111.522 1550.32 110.934 1548.15 111.029C1545.89 111.127 1544.11 111.878 1542.81 113.279C1541.51 114.681 1540.9 116.483 1541 118.684L1541.6 132.405L1537.48 132.585L1535.97 98.0475L1540.09 97.8675L1540.7 111.823C1542.55 108.77 1545.42 107.159 1549.31 106.99Z" fill="black"/>
<path d="M1594.11 97.5811L1599.35 109.664L1611.84 113.823L1599.76 119.056L1595.6 131.549L1590.37 119.466L1577.87 115.306L1589.96 110.074L1594.11 97.5811Z" fill="#4FC3F7"/>
<path d="M1644.13 128.515C1641.62 128.625 1639.3 128.147 1637.19 127.082C1635.1 126.016 1633.42 124.502 1632.16 122.539C1630.9 120.561 1630.22 118.331 1630.11 115.849L1629.22 95.4307L1633.6 95.2395L1634.48 115.564C1634.6 118.155 1635.55 120.288 1637.34 121.961C1639.15 123.618 1641.35 124.39 1643.94 124.277C1646.55 124.163 1648.68 123.202 1650.34 121.393C1652 119.569 1652.77 117.362 1652.65 114.771L1651.77 94.4462L1656.12 94.256L1657.01 114.674C1657.12 117.156 1656.64 119.437 1655.55 121.518C1654.47 123.583 1652.92 125.238 1650.91 126.483C1648.92 127.727 1646.66 128.405 1644.13 128.515ZM1692.84 125.802L1687.38 126.04L1676.27 112.825L1666.38 126.957L1660.99 127.192L1673.17 109.981L1659.73 94.0983L1665.17 93.8611L1676.11 106.967L1685.77 92.9615L1691.2 92.7243L1679.21 109.717L1692.84 125.802ZM1719.64 91.4826C1722.8 91.3449 1725.69 91.9383 1728.31 93.2626C1730.93 94.587 1733.02 96.4819 1734.59 98.9474C1736.15 101.397 1737 104.175 1737.13 107.282C1737.27 110.388 1736.66 113.237 1735.32 115.83C1733.98 118.422 1732.06 120.492 1729.56 122.04C1727.07 123.588 1724.24 124.431 1721.09 124.568L1708.33 125.125L1706.88 92.0398L1719.64 91.4826ZM1720.86 120.449C1724.36 120.297 1727.23 118.982 1729.49 116.507C1731.74 114.031 1732.79 111.022 1732.64 107.478C1732.53 105.152 1731.9 103.068 1730.74 101.226C1729.6 99.3684 1728.06 97.942 1726.12 96.9474C1724.2 95.9521 1722.09 95.5049 1719.78 95.6057L1711.46 95.9687L1712.55 120.812L1720.86 120.449ZM1766.41 110.344C1766.42 110.578 1766.41 111.188 1766.37 112.175L1745.32 113.094C1745.84 115.23 1746.93 116.926 1748.62 118.182C1750.31 119.421 1752.34 119.99 1754.7 119.887C1756.44 119.811 1758.04 119.374 1759.47 118.576C1760.91 117.762 1762.01 116.752 1762.79 115.545L1765.73 117.857C1764.57 119.565 1763.02 120.939 1761.1 121.977C1759.19 123.014 1757.06 123.584 1754.72 123.686C1750.9 123.853 1747.66 122.759 1745.01 120.404C1742.35 118.049 1740.95 115.037 1740.79 111.368C1740.68 108.996 1741.14 106.817 1742.17 104.833C1743.21 102.833 1744.69 101.236 1746.6 100.041C1748.52 98.8471 1750.68 98.1976 1753.09 98.0926C1755.48 97.9883 1757.67 98.4478 1759.67 99.4709C1761.67 100.494 1763.27 101.965 1764.46 103.883C1765.65 105.786 1766.3 107.94 1766.41 110.344ZM1753.21 101.888C1751.08 101.981 1749.28 102.724 1747.79 104.118C1746.3 105.497 1745.41 107.241 1745.11 109.35L1761.95 108.615C1761.46 106.509 1760.42 104.842 1758.82 103.614C1757.22 102.37 1755.35 101.795 1753.21 101.888ZM1779.55 122.602C1775.6 122.775 1772.23 121.639 1769.45 119.196L1771.62 116.122C1773.7 118.08 1776.27 118.992 1779.31 118.859C1780.97 118.787 1782.31 118.423 1783.35 117.768C1784.38 117.097 1784.88 116.223 1784.83 115.146C1784.81 114.693 1784.67 114.293 1784.42 113.944C1784.19 113.579 1783.91 113.286 1783.59 113.065C1783.28 112.844 1782.82 112.638 1782.2 112.446C1781.6 112.237 1781.07 112.089 1780.61 111.999C1780.17 111.893 1779.54 111.757 1778.72 111.589C1777.96 111.435 1777.36 111.312 1776.92 111.222C1776.47 111.116 1775.9 110.954 1775.18 110.735C1774.48 110.515 1773.91 110.297 1773.46 110.082C1773.03 109.867 1772.55 109.583 1772.02 109.231C1771.5 108.862 1771.09 108.474 1770.77 108.065C1770.47 107.64 1770.21 107.136 1769.98 106.551C1769.77 105.951 1769.64 105.291 1769.61 104.573C1769.54 103.044 1769.92 101.705 1770.75 100.559C1771.58 99.4124 1772.67 98.5513 1774.04 97.9755C1775.4 97.3841 1776.95 97.0509 1778.66 96.9759C1782.19 96.8219 1785.23 97.8075 1787.78 99.9328L1785.59 103.055C1783.72 101.385 1781.48 100.607 1778.87 100.72C1777.39 100.785 1776.17 101.12 1775.21 101.725C1774.25 102.33 1773.8 103.139 1773.84 104.154C1773.86 104.622 1774 105.039 1774.25 105.403C1774.5 105.752 1774.77 106.037 1775.08 106.258C1775.4 106.479 1775.88 106.692 1776.52 106.899C1777.15 107.091 1777.68 107.24 1778.11 107.346C1778.55 107.436 1779.2 107.564 1780.05 107.73C1780.79 107.87 1781.38 107.993 1781.82 108.099C1782.28 108.188 1782.86 108.335 1783.56 108.539C1784.25 108.743 1784.82 108.953 1785.25 109.169C1785.7 109.369 1786.18 109.645 1786.69 109.997C1787.21 110.35 1787.62 110.731 1787.92 111.141C1788.21 111.55 1788.47 112.055 1788.69 112.655C1788.91 113.24 1789.04 113.883 1789.07 114.585C1789.18 116.943 1788.33 118.841 1786.53 120.28C1784.73 121.704 1782.4 122.478 1779.55 122.602ZM1794.66 91.9608C1793.87 91.9956 1793.19 91.767 1792.64 91.275C1792.08 90.7674 1791.79 90.1234 1791.76 89.3429C1791.72 88.5468 1791.96 87.8796 1792.47 87.3413C1792.97 86.803 1793.63 86.5164 1794.42 86.4817C1795.2 86.4476 1795.86 86.6769 1796.4 87.1695C1796.94 87.6622 1797.22 88.3065 1797.26 89.1027C1797.29 89.8832 1797.06 90.5504 1796.55 91.1043C1796.06 91.6419 1795.43 91.9274 1794.66 91.9608ZM1793.88 121.39L1792.82 96.9446L1796.94 96.7646L1798 121.21L1793.88 121.39ZM1819.67 120.897C1822 120.796 1823.94 121.298 1825.49 122.403C1827.04 123.508 1827.97 125.071 1828.3 127.09L1824.08 128.376C1823.99 127.286 1823.48 126.424 1822.56 125.792C1821.66 125.174 1820.51 124.896 1819.12 124.956L1810.11 125.35C1808.08 125.439 1806.41 124.972 1805.1 123.95C1803.8 122.928 1803.12 121.558 1803.04 119.841C1802.99 118.685 1803.21 117.597 1803.7 116.575C1804.2 115.536 1804.91 114.739 1805.82 114.183C1804.72 113.246 1803.84 112.127 1803.19 110.826C1802.55 109.524 1802.2 108.108 1802.13 106.579C1802 103.55 1802.95 100.983 1804.99 98.8764C1807.04 96.7537 1809.66 95.6228 1812.84 95.4838C1815.01 95.389 1817.03 95.8326 1818.9 96.8143C1819.08 95.5084 1819.65 94.4512 1820.62 93.6427C1821.58 92.8342 1822.81 92.3976 1824.29 92.3328L1826.16 92.2511L1826.33 96.0911L1824.69 96.1627C1823.8 96.2016 1823.09 96.483 1822.55 97.0071C1822.02 97.5148 1821.77 98.1749 1821.79 98.9873C1823.46 100.807 1824.36 103.012 1824.47 105.603C1824.6 108.616 1823.64 111.191 1821.6 113.33C1819.55 115.452 1816.94 116.583 1813.77 116.721C1811.85 116.805 1810.11 116.498 1808.54 115.8C1808.07 116.133 1807.71 116.556 1807.45 117.068C1807.2 117.563 1807.09 118.076 1807.12 118.607C1807.15 119.466 1807.5 120.138 1808.17 120.626C1808.83 121.113 1809.67 121.334 1810.71 121.289L1819.67 120.897ZM1813.01 99.4175C1811.03 99.5041 1809.41 100.216 1808.15 101.553C1806.9 102.875 1806.31 104.488 1806.4 106.392C1806.48 108.312 1807.2 109.884 1808.57 111.107C1809.95 112.313 1811.63 112.873 1813.59 112.788C1815.56 112.702 1817.17 111.998 1818.43 110.676C1819.7 109.338 1820.29 107.709 1820.21 105.789C1820.13 103.885 1819.39 102.329 1818.01 101.123C1816.65 99.9001 1814.98 99.3317 1813.01 99.4175ZM1842.3 94.1974C1845.28 94.0672 1847.72 94.868 1849.61 96.5997C1851.51 98.3307 1852.53 100.695 1852.66 103.692L1853.32 118.795L1849.2 118.975L1848.6 105.16C1848.5 102.974 1847.78 101.254 1846.43 99.9996C1845.07 98.7293 1843.31 98.1415 1841.14 98.2363C1838.88 98.3351 1837.1 99.0854 1835.8 100.487C1834.5 101.889 1833.9 103.69 1833.99 105.891L1834.59 119.613L1830.47 119.793L1829.4 95.3471L1833.52 95.1672L1833.69 98.8902C1835.54 95.9314 1838.42 94.3671 1842.3 94.1974Z" fill="black"/>
<path d="M1887.83 84.757L1893.07 96.8402L1905.56 100.999L1893.48 106.231L1889.32 118.725L1884.09 106.642L1871.59 102.482L1883.68 97.2502L1887.83 84.757Z" fill="#4FC3F7"/>
<path d="M1949.55 114.593L1946 106.725L1929.79 107.433L1926.94 115.581L1922.23 115.786L1934.25 82.1128L1939.49 81.8838L1954.4 114.382L1949.55 114.593ZM1931.25 103.287L1944.2 102.722L1937.01 86.7547L1931.25 103.287ZM1970.71 88.5909C1974.21 88.4383 1977.18 89.5362 1979.63 91.8848C1982.08 94.2333 1983.38 97.2262 1983.54 100.863C1983.7 104.5 1982.66 107.596 1980.43 110.149C1978.19 112.702 1975.33 114.054 1971.83 114.207C1969.83 114.294 1967.99 113.937 1966.32 113.134C1964.64 112.316 1963.24 111.149 1962.13 109.634L1962.72 123.144L1958.6 123.324L1957.13 89.7703L1961.25 89.5903L1961.45 93.9924C1962.42 92.3857 1963.71 91.1095 1965.31 90.1638C1966.91 89.2025 1968.71 88.6782 1970.71 88.5909ZM1970.88 110.26C1973.4 110.151 1975.45 109.216 1977.05 107.457C1978.65 105.699 1979.39 103.563 1979.28 101.049C1979.17 98.5362 1978.24 96.4731 1976.5 94.8601C1974.76 93.2471 1972.63 92.4955 1970.11 92.6052C1967.62 92.7143 1965.58 93.6479 1964 95.406C1962.41 97.1642 1961.68 99.2998 1961.79 101.813C1961.9 104.326 1962.82 106.39 1964.55 108.003C1966.27 109.617 1968.39 110.369 1970.88 110.26ZM2001.37 87.2524C2004.87 87.0997 2007.84 88.1977 2010.29 90.5462C2012.74 92.8948 2014.04 95.8877 2014.2 99.5248C2014.36 103.162 2013.32 106.257 2011.08 108.81C2008.85 111.363 2005.98 112.716 2002.49 112.869C2000.49 112.956 1998.65 112.598 1996.97 111.796C1995.3 110.977 1993.9 109.811 1992.79 108.295L1993.38 121.806L1989.26 121.986L1987.79 88.4318L1991.91 88.2518L1992.1 92.6539C1993.08 91.0472 1994.37 89.771 1995.97 88.8253C1997.57 87.8639 1999.37 87.3396 2001.37 87.2524ZM2001.54 108.922C2004.05 108.812 2006.11 107.878 2007.71 106.119C2009.3 104.36 2010.05 102.224 2009.94 99.7109C2009.83 97.1977 2008.9 95.1346 2007.16 93.5216C2005.41 91.9086 2003.28 91.157 2000.77 91.2667C1998.27 91.3758 1996.23 92.3094 1994.65 94.0675C1993.07 95.8256 1992.34 97.9613 1992.45 100.475C1992.56 102.988 1993.47 105.051 1995.2 106.665C1996.93 108.279 1999.04 109.031 2001.54 108.922ZM2042.34 77.3936C2045.49 77.2559 2048.38 77.8493 2051 79.1736C2053.62 80.498 2055.71 82.3929 2057.28 84.8584C2058.84 87.3082 2059.69 90.0863 2059.82 93.1928C2059.96 96.2992 2059.35 99.1485 2058.01 101.741C2056.67 104.333 2054.75 106.403 2052.26 107.951C2049.76 109.499 2046.93 110.342 2043.78 110.479L2031.02 111.036L2029.57 77.9508L2042.34 77.3936ZM2043.55 106.36C2047.05 106.208 2049.92 104.893 2052.18 102.418C2054.43 99.9421 2055.48 96.9325 2055.33 93.389C2055.22 91.0631 2054.59 88.9793 2053.43 87.1375C2052.29 85.2794 2050.75 83.853 2048.81 82.8584C2046.89 81.8631 2044.78 81.4159 2042.47 81.5167L2034.16 81.8797L2035.24 106.723L2043.55 106.36ZM2089.1 96.2545C2089.11 96.4887 2089.1 97.0992 2089.06 98.086L2068.01 99.0051C2068.53 101.141 2069.63 102.837 2071.31 104.093C2073 105.332 2075.03 105.901 2077.39 105.798C2079.14 105.722 2080.73 105.285 2082.16 104.487C2083.6 103.673 2084.7 102.663 2085.48 101.456L2088.42 103.768C2087.26 105.476 2085.71 106.85 2083.79 107.888C2081.88 108.925 2079.75 109.495 2077.41 109.597C2073.59 109.764 2070.35 108.67 2067.7 106.315C2065.05 103.96 2063.64 100.948 2063.48 97.2793C2063.38 94.9066 2063.84 92.7282 2064.86 90.7441C2065.9 88.7438 2067.38 87.1465 2069.3 85.9523C2071.21 84.7581 2073.38 84.1086 2075.78 84.0036C2078.17 83.8993 2080.36 84.3588 2082.36 85.3819C2084.36 86.405 2085.96 87.8758 2087.15 89.7943C2088.35 91.6972 2088.99 93.8506 2089.1 96.2545ZM2075.9 87.7989C2073.77 87.8916 2071.97 88.6351 2070.48 90.0295C2068.99 91.4082 2068.1 93.1519 2067.8 95.2607L2084.64 94.5257C2084.15 92.4197 2083.11 90.7527 2081.51 89.5245C2079.91 88.2807 2078.04 87.7055 2075.9 87.7989ZM2102.24 108.513C2098.29 108.686 2094.92 107.55 2092.14 105.107L2094.31 102.033C2096.4 103.991 2098.96 104.903 2102.01 104.77C2103.66 104.698 2105 104.334 2106.04 103.679C2107.07 103.008 2107.57 102.134 2107.52 101.057C2107.5 100.604 2107.37 100.204 2107.12 99.8549C2106.88 99.4898 2106.6 99.197 2106.28 98.9765C2105.97 98.7553 2105.51 98.5487 2104.89 98.3567C2104.29 98.1485 2103.76 97.9996 2103.3 97.9101C2102.86 97.8043 2102.23 97.6677 2101.41 97.5002C2100.65 97.3456 2100.05 97.2232 2099.61 97.133C2099.16 97.0272 2098.59 96.8647 2097.87 96.6456C2097.18 96.4259 2096.6 96.2084 2096.16 95.9934C2095.72 95.7776 2095.24 95.4937 2094.71 95.1415C2094.19 94.7731 2093.78 94.3846 2093.46 93.9761C2093.16 93.5513 2092.9 93.0467 2092.67 92.4624C2092.46 91.8617 2092.33 91.2024 2092.3 90.4843C2092.24 88.9545 2092.62 87.6164 2093.44 86.4699C2094.27 85.3234 2095.36 84.4623 2096.73 83.8865C2098.1 83.2951 2099.64 82.9619 2101.35 82.8869C2104.88 82.7329 2107.92 83.7185 2110.47 85.8438L2108.28 88.9655C2106.41 87.2956 2104.17 86.5175 2101.57 86.6313C2100.08 86.6961 2098.86 87.0309 2097.9 87.6358C2096.94 88.2407 2096.49 89.0505 2096.53 90.0651C2096.55 90.5334 2096.69 90.9498 2096.94 91.3142C2097.19 91.663 2097.47 91.948 2097.77 92.1692C2098.09 92.3898 2098.57 92.6035 2099.21 92.8104C2099.84 93.0016 2100.37 93.1505 2100.8 93.257C2101.24 93.3472 2101.89 93.4753 2102.74 93.6415C2103.48 93.7812 2104.07 93.9039 2104.52 94.0097C2104.97 94.0992 2105.55 94.246 2106.25 94.4502C2106.94 94.6544 2107.51 94.8643 2107.94 95.0801C2108.39 95.2795 2108.87 95.5557 2109.38 95.9085C2109.9 96.2613 2110.31 96.6424 2110.61 97.0516C2110.91 97.4608 2111.16 97.9657 2111.38 98.5663C2111.61 99.1506 2111.74 99.794 2111.77 100.496C2111.87 102.854 2111.02 104.752 2109.22 106.191C2107.42 107.615 2105.1 108.389 2102.24 108.513ZM2117.35 77.8718C2116.56 77.9066 2115.88 77.678 2115.33 77.186C2114.78 76.6785 2114.48 76.0344 2114.45 75.2539C2114.41 74.4578 2114.65 73.7906 2115.16 73.2523C2115.67 72.714 2116.32 72.4274 2117.11 72.3927C2117.89 72.3586 2118.55 72.5879 2119.09 73.0805C2119.63 73.5732 2119.92 74.2175 2119.95 75.0137C2119.98 75.7942 2119.75 76.4614 2119.24 77.0153C2118.75 77.5529 2118.12 77.8384 2117.35 77.8718ZM2116.57 107.301L2115.51 82.8556L2119.63 82.6756L2120.69 107.121L2116.57 107.301ZM2142.36 106.808C2144.69 106.707 2146.63 107.209 2148.18 108.314C2149.73 109.419 2150.66 110.982 2150.99 113.001L2146.77 114.287C2146.68 113.197 2146.17 112.335 2145.25 111.703C2144.35 111.085 2143.2 110.807 2141.81 110.867L2132.8 111.261C2130.77 111.35 2129.1 110.883 2127.79 109.861C2126.49 108.839 2125.81 107.469 2125.73 105.752C2125.68 104.596 2125.9 103.508 2126.39 102.486C2126.89 101.447 2127.6 100.65 2128.51 100.094C2127.41 99.1567 2126.53 98.0376 2125.88 96.7367C2125.24 95.435 2124.89 94.0193 2124.82 92.4895C2124.69 89.4612 2125.64 86.8938 2127.68 84.7874C2129.73 82.6647 2132.35 81.5338 2135.53 81.3948C2137.7 81.3001 2139.72 81.7436 2141.59 82.7253C2141.77 81.4194 2142.34 80.3623 2143.31 79.5537C2144.28 78.7452 2145.5 78.3086 2146.98 78.2438L2148.86 78.1621L2149.02 82.0021L2147.38 82.0737C2146.49 82.1126 2145.78 82.394 2145.24 82.9181C2144.71 83.4258 2144.46 84.0859 2144.48 84.8983C2146.16 86.7176 2147.05 88.9229 2147.16 91.5142C2147.29 94.527 2146.34 97.1025 2144.29 99.2408C2142.24 101.363 2139.63 102.494 2136.46 102.632C2134.54 102.716 2132.8 102.409 2131.23 101.711C2130.76 102.044 2130.4 102.467 2130.14 102.979C2129.89 103.474 2129.78 103.987 2129.81 104.518C2129.84 105.377 2130.19 106.049 2130.86 106.537C2131.52 107.024 2132.37 107.245 2133.4 107.2L2142.36 106.808ZM2135.7 85.3285C2133.72 85.4151 2132.1 86.127 2130.85 87.4643C2129.59 88.786 2129 90.399 2129.09 92.3035C2129.17 94.2235 2129.9 95.7949 2131.26 97.0177C2132.65 98.2242 2134.32 98.7845 2136.29 98.6986C2138.25 98.6127 2139.86 97.909 2141.12 96.5873C2142.39 95.2493 2142.99 93.6203 2142.9 91.7003C2142.82 89.7958 2142.09 88.2404 2140.7 87.0339C2139.34 85.8111 2137.67 85.2427 2135.7 85.3285ZM2164.99 80.1084C2167.98 79.9782 2170.41 80.779 2172.3 82.5107C2174.21 84.2418 2175.22 86.6058 2175.36 89.603L2176.01 104.706L2171.89 104.886L2171.29 91.0708C2171.19 88.8853 2170.47 87.1653 2169.12 85.9106C2167.76 84.6403 2166 84.0525 2163.83 84.1473C2161.57 84.2461 2159.79 84.9964 2158.49 86.3982C2157.19 87.7999 2156.59 89.6013 2156.68 91.8023L2157.28 105.524L2153.16 105.704L2152.09 81.2581L2156.22 81.0782L2156.38 84.8012C2158.23 81.8424 2161.11 80.2781 2164.99 80.1084Z" fill="black"/>
<path d="M2210.53 70.668L2215.76 82.7511L2228.25 86.9103L2216.17 92.1424L2212.01 104.636L2206.78 92.5525L2194.28 88.3933L2206.37 83.1611L2210.53 70.668Z" fill="#4FC3F7"/>
<path d="M2259.12 67.9287C2262.27 67.791 2265.16 68.3843 2267.78 69.7087C2270.4 71.0331 2272.5 72.928 2274.06 75.3934C2275.62 77.8433 2276.47 80.6214 2276.61 83.7278C2276.74 86.8342 2276.14 89.6835 2274.8 92.2758C2273.46 94.868 2271.54 96.9381 2269.04 98.486C2266.54 100.034 2263.72 100.877 2260.56 101.014L2247.8 101.572L2246.36 68.4858L2259.12 67.9287ZM2260.34 96.8953C2263.83 96.7426 2266.71 95.4285 2268.96 92.9528C2271.21 90.4772 2272.26 87.4676 2272.11 83.9241C2272.01 81.5982 2271.38 79.5143 2270.22 77.6725C2269.07 75.8144 2267.53 74.3881 2265.6 73.3935C2263.68 72.3981 2261.56 71.9509 2259.25 72.0518L2250.94 72.4147L2252.02 97.2582L2260.34 96.8953ZM2301.56 74.7325L2305.68 74.5526L2306.74 98.998L2302.62 99.178L2302.43 94.7759C2301.45 96.3826 2300.16 97.6669 2298.54 98.6289C2296.94 99.5747 2295.14 100.091 2293.14 100.178C2290.85 100.279 2288.74 99.8154 2286.82 98.7889C2284.9 97.7467 2283.36 96.2732 2282.21 94.3683C2281.08 92.4471 2280.46 90.2923 2280.36 87.9039C2280.26 85.5156 2280.68 83.323 2281.64 81.326C2282.62 79.3128 2284.02 77.7111 2285.85 76.521C2287.67 75.3153 2289.73 74.6624 2292.02 74.5622C2294.02 74.4749 2295.86 74.8404 2297.54 75.6586C2299.23 76.4606 2300.63 77.6192 2301.75 79.1345L2301.56 74.7325ZM2293.74 96.1641C2296.24 96.055 2298.28 95.1214 2299.86 93.3633C2301.46 91.6045 2302.2 89.4685 2302.09 86.9552C2301.98 84.442 2301.05 82.3789 2299.31 80.7659C2297.58 79.1523 2295.47 78.4 2292.97 78.509C2290.46 78.6188 2288.4 79.553 2286.81 81.3118C2285.21 83.0707 2284.46 85.2067 2284.57 87.7199C2284.68 90.2332 2285.61 92.2963 2287.36 93.9092C2289.1 95.5222 2291.23 96.2738 2293.74 96.1641ZM2321.08 98.9585C2317.13 99.1309 2313.77 97.9954 2310.99 95.5518L2313.15 92.4779C2315.24 94.4356 2317.8 95.348 2320.85 95.2151C2322.5 95.1429 2323.85 94.7792 2324.88 94.124C2325.92 93.4533 2326.41 92.5794 2326.36 91.5023C2326.34 91.0496 2326.21 90.6488 2325.96 90.3C2325.72 89.9349 2325.45 89.6421 2325.12 89.4216C2324.82 89.2004 2324.35 88.9938 2323.74 88.8018C2323.13 88.5936 2322.6 88.4447 2322.14 88.3552C2321.7 88.2494 2321.07 88.1127 2320.25 87.9453C2319.49 87.7906 2318.89 87.6682 2318.45 87.5781C2318.01 87.4723 2317.43 87.3098 2316.72 87.0907C2316.02 86.871 2315.45 86.6535 2315 86.4385C2314.57 86.2227 2314.09 85.9388 2313.55 85.5866C2313.04 85.2182 2312.62 84.8297 2312.31 84.4212C2312.01 83.9963 2311.74 83.4918 2311.51 82.9074C2311.3 82.3068 2311.18 81.6475 2311.15 80.9294C2311.08 79.3996 2311.46 78.0615 2312.28 76.915C2313.11 75.7685 2314.21 74.9074 2315.57 74.3316C2316.94 73.7402 2318.48 73.407 2320.2 73.332C2323.73 73.178 2326.76 74.1636 2329.31 76.2888L2327.13 79.4106C2325.25 77.7407 2323.02 76.9626 2320.41 77.0764C2318.93 77.1412 2317.7 77.476 2316.75 78.0809C2315.79 78.6858 2315.33 79.4956 2315.37 80.5102C2315.39 80.9785 2315.53 81.3949 2315.78 81.7593C2316.03 82.1081 2316.31 82.3931 2316.62 82.6143C2316.94 82.8349 2317.42 83.0486 2318.05 83.2554C2318.69 83.4467 2319.22 83.5956 2319.64 83.7021C2320.08 83.7923 2320.73 83.9204 2321.58 84.0866C2322.32 84.2262 2322.92 84.349 2323.36 84.4548C2323.82 84.5443 2324.39 84.6911 2325.09 84.8953C2325.79 85.0994 2326.35 85.3094 2326.78 85.5251C2327.23 85.7246 2327.71 86.0008 2328.23 86.3536C2328.74 86.7064 2329.15 87.0874 2329.45 87.4966C2329.75 87.9058 2330.01 88.4108 2330.22 89.0114C2330.45 89.5957 2330.58 90.2391 2330.61 90.9415C2330.71 93.2987 2329.86 95.1968 2328.07 96.636C2326.27 98.0596 2323.94 98.8337 2321.08 98.9585ZM2347.25 72.151C2350.23 72.0208 2352.67 72.8215 2354.56 74.5533C2356.46 76.2843 2357.48 78.6484 2357.61 81.6455L2358.27 96.7483L2354.15 96.9283L2353.55 83.1133C2353.45 80.9279 2352.73 79.2078 2351.37 77.9531C2350.02 76.6828 2348.26 76.0951 2346.09 76.1898C2343.83 76.2886 2342.04 77.0389 2340.74 78.4407C2339.44 79.8425 2338.84 81.6439 2338.94 83.8449L2339.54 97.5662L2335.42 97.7461L2333.91 63.2087L2338.03 63.0288L2338.64 76.9842C2340.49 73.9318 2343.36 72.3207 2347.25 72.151ZM2376.76 70.8625C2380.26 70.7099 2383.23 71.8078 2385.68 74.1564C2388.13 76.5049 2389.43 79.4978 2389.59 83.1349C2389.75 86.7721 2388.71 89.8672 2386.47 92.4202C2384.24 94.9732 2381.37 96.3261 2377.88 96.4787C2375.88 96.566 2374.04 96.2083 2372.36 95.4057C2370.69 94.5875 2369.29 93.4207 2368.18 91.9054L2368.37 96.3074L2364.25 96.4873L2362.74 61.9499L2366.86 61.77L2367.49 76.264C2368.47 74.6573 2369.76 73.3811 2371.36 72.4354C2372.96 71.4741 2374.76 70.9498 2376.76 70.8625ZM2376.93 92.5319C2379.44 92.4222 2381.5 91.4879 2383.1 89.7291C2384.69 87.9703 2385.44 85.8342 2385.33 83.321C2385.22 80.8078 2384.29 78.7447 2382.55 77.1317C2380.8 75.5187 2378.67 74.7671 2376.16 74.8768C2373.66 74.9859 2371.62 75.9195 2370.04 77.6776C2368.46 79.4358 2367.73 81.5715 2367.84 84.0847C2367.95 86.5979 2368.86 88.6614 2370.59 90.275C2372.32 91.8887 2374.43 92.641 2376.93 92.5319ZM2406.38 95.2343C2403.95 95.3406 2401.7 94.8832 2399.66 93.8622C2397.61 92.8255 2395.97 91.3564 2394.75 89.4548C2393.54 87.537 2392.88 85.384 2392.78 82.9956C2392.67 80.6073 2393.14 78.4129 2394.18 76.4126C2395.23 74.396 2396.74 72.7899 2398.69 71.5943C2400.63 70.3831 2402.83 69.7244 2405.26 69.6181C2408.95 69.4572 2412.08 70.548 2414.67 72.8904C2417.28 75.2322 2418.66 78.2216 2418.82 81.8588C2418.98 85.4959 2417.86 88.5944 2415.47 91.1543C2413.09 93.7134 2410.06 95.0734 2406.38 95.2343ZM2406.21 91.2537C2408.7 91.1447 2410.74 90.2111 2412.32 88.4529C2413.92 86.6941 2414.66 84.5581 2414.56 82.0448C2414.45 79.5316 2413.52 77.4685 2411.77 75.8556C2410.05 74.2419 2407.93 73.4896 2405.44 73.5987C2402.92 73.7084 2400.87 74.6427 2399.27 76.4015C2397.67 78.1603 2396.93 80.2963 2397.04 82.8096C2397.15 85.3228 2398.08 87.3859 2399.82 88.9988C2401.56 90.6118 2403.69 91.3634 2406.21 91.2537ZM2443.23 68.547L2447.35 68.3671L2448.42 92.8125L2444.29 92.9924L2444.1 88.5904C2443.12 90.1971 2441.83 91.4814 2440.21 92.4434C2438.61 93.3892 2436.81 93.9057 2434.81 93.9929C2432.52 94.0931 2430.41 93.6299 2428.49 92.6034C2426.57 91.5612 2425.03 90.0877 2423.89 88.1828C2422.75 86.2616 2422.14 84.1068 2422.03 81.7184C2421.93 79.3301 2422.36 77.1375 2423.32 75.1405C2424.29 73.1273 2425.69 71.5256 2427.52 70.3355C2429.34 69.1298 2431.4 68.4769 2433.69 68.3767C2435.69 68.2894 2437.53 68.6549 2439.21 69.4731C2440.9 70.2751 2442.3 71.4337 2443.42 72.949L2443.23 68.547ZM2435.41 89.9786C2437.91 89.8695 2439.95 88.9359 2441.53 87.1778C2443.13 85.419 2443.87 83.2829 2443.76 80.7697C2443.65 78.2565 2442.72 76.1934 2440.98 74.5804C2439.25 72.9668 2437.14 72.2145 2434.64 72.3235C2432.13 72.4332 2430.07 73.3675 2428.48 75.1263C2426.88 76.8852 2426.14 79.0212 2426.25 81.5344C2426.36 84.0477 2427.28 86.1108 2429.03 87.7237C2430.77 89.3367 2432.9 90.0883 2435.41 89.9786ZM2466.09 67.1498L2466.91 67.114L2467.1 71.3756L2466.28 71.4114C2463.7 71.5238 2461.7 72.3699 2460.27 73.9495C2458.85 75.5128 2458.2 77.5745 2458.31 80.1346L2458.84 92.3573L2454.72 92.5372L2453.65 68.0918L2457.77 67.9118L2457.96 72.1266C2459.74 68.9675 2462.46 67.3086 2466.09 67.1498ZM2489.35 56.4221L2493.47 56.2421L2494.98 90.7796L2490.86 90.9595L2490.66 86.5574C2489.69 88.1641 2488.39 89.4485 2486.77 90.4105C2485.17 91.3562 2483.37 91.8727 2481.38 91.9599C2479.08 92.0601 2476.97 91.5969 2475.05 90.5704C2473.13 89.5283 2471.59 88.0547 2470.45 86.1498C2469.32 84.2286 2468.7 82.0738 2468.59 79.6855C2468.49 77.2971 2468.92 75.1045 2469.88 73.1076C2470.85 71.0943 2472.25 69.4927 2474.08 68.3026C2475.9 67.0969 2477.96 66.4439 2480.26 66.3437C2482.26 66.2565 2484.09 66.622 2485.77 67.4402C2487.46 68.2421 2488.87 69.4007 2489.98 70.9161L2489.35 56.4221ZM2481.97 87.9456C2484.47 87.8366 2486.51 86.903 2488.09 85.1448C2489.69 83.386 2490.43 81.25 2490.32 78.7368C2490.21 76.2235 2489.29 74.1604 2487.54 72.5475C2485.81 70.9338 2483.7 70.1815 2481.2 70.2906C2478.69 70.4003 2476.64 71.3346 2475.04 73.0934C2473.44 74.8522 2472.7 76.9882 2472.81 79.5015C2472.92 82.0147 2473.84 84.0778 2475.59 85.6908C2477.33 87.3037 2479.46 88.0553 2481.97 87.9456Z" fill="black"/>
<path d="M2529.22 56.7534L2534.46 68.8365L2546.95 72.9957L2534.87 78.2279L2530.71 90.721L2525.47 78.6379L2512.98 74.4787L2525.06 69.2466L2529.22 56.7534Z" fill="#4FC3F7"/>
<path d="M2604.27 52.8589L2608.84 52.6595L2599.72 86.2062L2595.27 86.4005L2585.89 60.0894L2578.86 87.1171L2574.41 87.3114L2562.41 54.6868L2567.07 54.4833L2576.5 81.4022L2583.71 53.7565L2587.63 53.5857L2597.22 80.4974L2604.27 52.8589ZM2615.07 56.1409C2614.28 56.1756 2613.6 55.947 2613.05 55.4551C2612.5 54.9475 2612.2 54.3035 2612.17 53.5229C2612.13 52.7268 2612.37 52.0596 2612.88 51.5213C2613.39 50.983 2614.04 50.6965 2614.83 50.6617C2615.62 50.6276 2616.27 50.8569 2616.81 51.3496C2617.35 51.8422 2617.64 52.4866 2617.67 53.2827C2617.7 54.0632 2617.47 54.7304 2616.96 55.2843C2616.47 55.822 2615.84 56.1075 2615.07 56.1409ZM2614.29 85.5701L2613.23 61.1246L2617.35 60.9447L2618.42 85.3901L2614.29 85.5701ZM2636.05 59.7295L2636.87 59.6937L2637.05 63.9553L2636.23 63.9911C2633.66 64.1035 2631.65 64.9495 2630.22 66.5292C2628.8 68.0925 2628.15 70.1542 2628.26 72.7142L2628.8 84.937L2624.67 85.1169L2623.61 60.6714L2627.73 60.4915L2627.91 64.7062C2629.7 61.5472 2632.41 59.8883 2636.05 59.7295ZM2664.07 71.1508C2664.08 71.385 2664.07 71.9955 2664.03 72.9823L2642.98 73.9014C2643.5 76.0372 2644.6 77.7331 2646.28 78.989C2647.97 80.2287 2650 80.7971 2652.36 80.6942C2654.11 80.6179 2655.7 80.1808 2657.13 79.3831C2658.57 78.5697 2659.67 77.5596 2660.45 76.3527L2663.39 78.6642C2662.23 80.3727 2660.69 81.746 2658.76 82.7841C2656.85 83.8215 2654.72 84.3914 2652.38 84.4936C2648.56 84.6606 2645.32 83.5664 2642.67 81.2111C2640.02 78.8558 2638.61 75.8439 2638.45 72.1756C2638.35 69.8028 2638.81 67.6244 2639.83 65.6404C2640.87 63.6401 2642.35 62.0428 2644.27 60.8486C2646.18 59.6544 2648.35 59.0048 2650.75 58.8999C2653.14 58.7956 2655.33 59.255 2657.33 60.2781C2659.33 61.3013 2660.93 62.7721 2662.12 64.6905C2663.32 66.5934 2663.96 68.7468 2664.07 71.1508ZM2650.87 62.6952C2648.75 62.7879 2646.94 63.5314 2645.45 64.9257C2643.96 66.3044 2643.07 68.0482 2642.77 70.157L2659.61 69.4219C2659.12 67.316 2658.08 65.6489 2656.48 64.4208C2654.88 63.177 2653.01 62.6018 2650.87 62.6952ZM2677.03 51.465C2674.41 51.5795 2673.16 52.8777 2673.26 55.3597L2673.4 58.4974L2680.45 58.1897L2680.61 61.9127L2673.56 62.2204L2674.47 82.9428L2670.35 83.1228L2669.44 62.4003L2664.99 62.5946L2664.83 58.8716L2669.28 58.6773L2669.13 55.2587C2669.03 52.9328 2669.56 51.1188 2670.72 49.8169C2671.89 48.5149 2673.65 47.8125 2676 47.7095C2677.55 47.6421 2678.98 47.916 2680.28 48.5314L2680.44 52.1841C2679.34 51.6536 2678.21 51.4139 2677.03 51.465ZM2696.73 57.0798L2697.55 57.044L2697.74 61.3056L2696.92 61.3413C2694.35 61.4538 2692.34 62.2998 2690.91 63.8794C2689.49 65.4428 2688.84 67.5045 2688.95 70.0645L2689.48 82.2872L2685.36 82.4672L2684.3 58.0217L2688.42 57.8418L2688.6 62.0565C2690.39 58.8975 2693.1 57.2386 2696.73 57.0798ZM2720.43 56.444L2724.55 56.264L2725.62 80.7095L2721.5 80.8894L2721.31 76.4874C2720.33 78.0941 2719.03 79.3784 2717.42 80.3404C2715.82 81.2862 2714.02 81.8026 2712.02 81.8899C2709.72 81.9901 2707.61 81.5269 2705.69 80.5004C2703.77 79.4582 2702.24 77.9847 2701.09 76.0798C2699.96 74.1586 2699.34 72.0038 2699.24 69.6154C2699.13 67.2271 2699.56 65.0344 2700.52 63.0375C2701.5 61.0243 2702.9 59.4226 2704.72 58.2325C2706.55 57.0268 2708.6 56.3738 2710.9 56.2737C2712.9 56.1864 2714.74 56.5519 2716.41 57.3701C2718.11 58.172 2719.51 59.3307 2720.62 60.846L2720.43 56.444ZM2712.62 77.8756C2715.11 77.7665 2717.15 76.8329 2718.73 75.0748C2720.33 73.316 2721.07 71.1799 2720.97 68.6667C2720.86 66.1535 2719.93 64.0904 2718.18 62.4774C2716.46 60.8638 2714.34 60.1115 2711.85 60.2205C2709.33 60.3302 2707.28 61.2645 2705.68 63.0233C2704.08 64.7822 2703.34 66.9182 2703.45 69.4314C2703.56 71.9446 2704.49 74.0077 2706.23 75.6207C2707.97 77.2337 2710.1 77.9853 2712.62 77.8756ZM2760.03 54.1285C2762.84 54.0058 2765.12 54.751 2766.86 56.364C2768.62 57.9606 2769.56 60.1639 2769.68 62.9737L2770.37 78.7555L2766.25 78.9355L2765.61 64.301C2765.53 62.3497 2764.87 60.8221 2763.65 59.718C2762.45 58.5977 2760.88 58.0798 2758.94 58.1643C2756.94 58.2516 2755.36 58.9149 2754.19 60.1545C2753.03 61.394 2752.49 62.9972 2752.57 64.9641L2753.21 79.5049L2749.09 79.6848L2748.45 65.0503C2748.36 63.0991 2747.71 61.5714 2746.49 60.4674C2745.28 59.3471 2743.71 58.8292 2741.78 58.9137C2739.78 59.0009 2738.2 59.6643 2737.03 60.9038C2735.87 62.1434 2735.33 63.7466 2735.41 65.7134L2736.05 80.2543L2731.92 80.4342L2730.86 55.9888L2734.98 55.8088L2735.12 59.1104C2736.87 56.438 2739.48 55.0258 2742.96 54.8738C2744.87 54.7907 2746.55 55.1395 2748 55.9205C2749.46 56.7014 2750.58 57.8333 2751.37 59.3161C2752.22 57.7305 2753.39 56.491 2754.86 55.5975C2756.36 54.7034 2758.08 54.2137 2760.03 54.1285ZM2799.79 65.225C2799.8 65.4591 2799.79 66.0696 2799.76 67.0565L2778.71 67.9755C2779.22 70.1113 2780.32 71.8072 2782 73.0632C2783.7 74.3029 2785.72 74.8713 2788.08 74.7684C2789.83 74.692 2791.42 74.255 2792.86 73.4573C2794.29 72.6439 2795.4 71.6338 2796.17 70.4269L2799.11 72.7384C2797.95 74.4469 2796.41 75.8202 2794.48 76.8583C2792.57 77.8957 2790.45 78.4655 2788.11 78.5678C2784.28 78.7347 2781.04 77.6406 2778.39 75.2853C2775.74 72.93 2774.33 69.9181 2774.17 66.2497C2774.07 63.877 2774.53 61.6986 2775.55 59.7146C2776.59 57.7142 2778.07 56.117 2779.99 54.9228C2781.91 53.7286 2784.07 53.079 2786.47 52.974C2788.86 52.8698 2791.06 53.3292 2793.06 54.3523C2795.05 55.3754 2796.65 56.8462 2797.85 58.7647C2799.04 60.6676 2799.69 62.821 2799.79 65.225ZM2786.59 56.7693C2784.47 56.862 2782.66 57.6055 2781.18 58.9999C2779.69 60.3786 2778.79 62.1224 2778.5 64.2312L2795.33 63.4961C2794.85 61.3902 2793.81 59.7231 2792.2 58.4949C2790.6 57.2512 2788.73 56.676 2786.59 56.7693Z" fill="black"/>
<path d="M2832.93 43.4931L2838.17 55.5762L2850.66 59.7354L2838.58 64.9676L2834.42 77.4607L2829.19 65.3776L2816.69 61.2184L2828.78 55.9863L2832.93 43.4931Z" fill="#4FC3F7"/>
<path d="M2882.95 74.4269C2880.44 74.5366 2878.12 74.0589 2876.01 72.9937C2873.92 71.9278 2872.24 70.4136 2870.98 68.451C2869.72 66.4728 2869.04 64.2427 2868.93 61.7607L2868.04 41.3427L2872.42 41.1515L2873.3 61.4759C2873.42 64.0671 2874.37 66.1995 2876.16 67.8728C2877.97 69.5299 2880.17 70.3019 2882.76 70.1887C2885.37 70.0749 2887.5 69.1138 2889.16 67.3054C2890.82 65.4815 2891.59 63.2738 2891.47 60.6825L2890.59 40.3582L2894.94 40.168L2895.83 60.586C2895.94 63.0681 2895.45 65.3493 2894.37 67.4297C2893.29 69.4945 2891.74 71.1495 2889.73 72.3946C2887.74 73.6391 2885.48 74.3165 2882.95 74.4269ZM2910.4 73.2284C2906.45 73.4009 2903.08 72.2653 2900.3 69.8218L2902.47 66.7479C2904.55 68.7056 2907.12 69.618 2910.16 69.4851C2911.82 69.4128 2913.16 69.0491 2914.2 68.394C2915.23 67.7232 2915.73 66.8493 2915.68 65.7722C2915.66 65.3195 2915.52 64.9188 2915.27 64.57C2915.04 64.2049 2914.76 63.912 2914.44 63.6915C2914.13 63.4703 2913.67 63.2637 2913.05 63.0718C2912.45 62.8635 2911.92 62.7146 2911.46 62.6251C2911.02 62.5193 2910.39 62.3827 2909.56 62.2152C2908.81 62.0606 2908.21 61.9382 2907.77 61.848C2907.32 61.7422 2906.75 61.5798 2906.03 61.3607C2905.33 61.1409 2904.76 60.9235 2904.31 60.7084C2903.88 60.4927 2903.4 60.2087 2902.87 59.8566C2902.35 59.4881 2901.94 59.0996 2901.62 58.6911C2901.32 58.2663 2901.06 57.7617 2900.83 57.1774C2900.61 56.5768 2900.49 55.9174 2900.46 55.1994C2900.39 53.6696 2900.77 52.3314 2901.6 51.185C2902.43 50.0385 2903.52 49.1773 2904.89 48.6015C2906.25 48.0101 2907.8 47.677 2909.51 47.602C2913.04 47.448 2916.08 48.4336 2918.63 50.5588L2916.44 53.6806C2914.57 52.0106 2912.33 51.2326 2909.72 51.3464C2908.24 51.4111 2907.02 51.7459 2906.06 52.3508C2905.1 52.9557 2904.64 53.7655 2904.69 54.7802C2904.71 55.2485 2904.84 55.6649 2905.1 56.0293C2905.35 56.3781 2905.62 56.6631 2905.93 56.8843C2906.25 57.1048 2906.73 57.3185 2907.37 57.5254C2908 57.7167 2908.53 57.8656 2908.96 57.972C2909.4 58.0622 2910.05 58.1904 2910.9 58.3565C2911.64 58.4962 2912.23 58.6189 2912.67 58.7247C2913.13 58.8142 2913.71 58.9611 2914.41 59.1652C2915.1 59.3694 2915.67 59.5794 2916.1 59.7951C2916.54 59.9946 2917.03 60.2707 2917.54 60.6235C2918.06 60.9764 2918.47 61.3574 2918.76 61.7666C2919.06 62.1758 2919.32 62.6807 2919.53 63.2813C2919.76 63.8657 2919.89 64.509 2919.92 65.2115C2920.03 67.5686 2919.18 69.4668 2917.38 70.906C2915.58 72.3296 2913.25 73.1037 2910.4 73.2284ZM2948.22 58.7444C2948.23 58.9786 2948.22 59.5891 2948.18 60.5759L2927.13 61.495C2927.65 63.6308 2928.75 65.3267 2930.43 66.5827C2932.13 67.8224 2934.15 68.3907 2936.51 68.2878C2938.26 68.2115 2939.85 67.7745 2941.29 66.9767C2942.72 66.1634 2943.83 65.1532 2944.6 63.9464L2947.54 66.2578C2946.38 67.9664 2944.84 69.3397 2942.91 70.3778C2941 71.4152 2938.88 71.985 2936.54 72.0872C2932.71 72.2542 2929.47 71.16 2926.82 68.8047C2924.17 66.4494 2922.76 63.4376 2922.6 59.7692C2922.5 57.3965 2922.96 55.2181 2923.98 53.234C2925.02 51.2337 2926.5 49.6364 2928.42 48.4422C2930.34 47.248 2932.5 46.5985 2934.9 46.4935C2937.29 46.3892 2939.48 46.8486 2941.48 47.8718C2943.48 48.8949 2945.08 50.3657 2946.27 52.2842C2947.47 54.1871 2948.12 56.3405 2948.22 58.7444ZM2935.02 50.2888C2932.9 50.3815 2931.09 51.125 2929.6 52.5193C2928.12 53.8981 2927.22 55.6418 2926.92 57.7506L2943.76 57.0156C2943.28 54.9096 2942.23 53.2426 2940.63 52.0144C2939.03 50.7706 2937.16 50.1954 2935.02 50.2888ZM2964.7 45.3801L2965.52 45.3443L2965.71 49.6059L2964.89 49.6417C2962.31 49.7541 2960.31 50.6002 2958.87 52.1798C2957.46 53.7431 2956.8 55.8048 2956.92 58.3649L2957.45 70.5876L2953.33 70.7675L2952.26 46.3221L2956.38 46.1421L2956.57 50.3569C2958.35 47.1978 2961.06 45.5389 2964.7 45.3801ZM3000.99 68.6865L2990.54 55.982L2985.69 56.1936L2986.26 69.3296L2981.86 69.5218L2980.42 36.4361L2993.83 35.8503C2996.77 35.7222 2999.26 36.5752 3001.31 38.4093C3003.38 40.2428 3004.47 42.5957 3004.6 45.468C3004.72 48.1373 3003.92 50.4396 3002.23 52.3749C3000.54 54.2939 2998.36 55.4061 2995.66 55.7113L3006.31 68.4544L3000.99 68.6865ZM2985 40.365L2985.52 52.3535L2994.44 51.964C2996.13 51.8904 2997.51 51.2593 2998.58 50.0707C2999.66 48.8821 3000.16 47.4292 3000.08 45.7121C3000.01 43.995 2999.38 42.5912 2998.21 41.5007C2997.04 40.4103 2995.61 39.9018 2993.92 39.9755L2985 40.365ZM3033.39 55.0261C3033.4 55.2603 3033.38 55.8707 3033.35 56.8576L3012.3 57.7767C3012.81 59.9125 3013.91 61.6084 3015.59 62.8643C3017.29 64.104 3019.32 64.6724 3021.67 64.5695C3023.42 64.4932 3025.01 64.0561 3026.45 63.2584C3027.88 62.445 3028.99 61.4349 3029.77 60.228L3032.71 62.5395C3031.54 64.248 3030 65.6213 3028.08 66.6594C3026.17 67.6968 3024.04 68.2667 3021.7 68.3689C3017.87 68.5359 3014.64 67.4417 3011.98 65.0864C3009.33 62.7311 3007.93 59.7192 3007.77 56.0509C3007.66 53.6781 3008.12 51.4997 3009.15 49.5157C3010.18 47.5153 3011.66 45.9181 3013.58 44.7239C3015.5 43.5297 3017.66 42.8801 3020.07 42.7752C3022.45 42.6709 3024.65 43.1303 3026.65 44.1534C3028.65 45.1766 3030.24 46.6474 3031.44 48.5658C3032.63 50.4687 3033.28 52.6221 3033.39 55.0261ZM3020.18 46.5705C3018.06 46.6632 3016.26 47.4067 3014.77 48.801C3013.28 50.1797 3012.39 51.9235 3012.09 54.0323L3028.92 53.2972C3028.44 51.1913 3027.4 49.5242 3025.8 48.2961C3024.19 47.0523 3022.32 46.4771 3020.18 46.5705ZM3046.53 67.2849C3042.58 67.4574 3039.21 66.3218 3036.43 63.8783L3038.6 60.8044C3040.68 62.7621 3043.25 63.6745 3046.29 63.5416C3047.95 63.4693 3049.29 63.1056 3050.33 62.4505C3051.36 61.7797 3051.85 60.9058 3051.81 59.8287C3051.79 59.376 3051.65 58.9753 3051.4 58.6265C3051.17 58.2614 3050.89 57.9685 3050.57 57.748C3050.26 57.5268 3049.8 57.3202 3049.18 57.1283C3048.58 56.92 3048.05 56.7711 3047.59 56.6816C3047.15 56.5758 3046.51 56.4392 3045.69 56.2717C3044.94 56.1171 3044.34 55.9947 3043.89 55.9045C3043.45 55.7987 3042.87 55.6363 3042.16 55.4172C3041.46 55.1974 3040.89 54.98 3040.44 54.7649C3040.01 54.5492 3039.53 54.2652 3039 53.9131C3038.48 53.5446 3038.07 53.1561 3037.75 52.7476C3037.45 52.3228 3037.19 51.8182 3036.96 51.2339C3036.74 50.6333 3036.62 49.9739 3036.59 49.2559C3036.52 47.7261 3036.9 46.388 3037.73 45.2415C3038.55 44.095 3039.65 43.2338 3041.02 42.658C3042.38 42.0666 3043.92 41.7335 3045.64 41.6585C3049.17 41.5045 3052.21 42.4901 3054.76 44.6153L3052.57 47.7371C3050.7 46.0671 3048.46 45.2891 3045.85 45.4029C3044.37 45.4676 3043.15 45.8024 3042.19 46.4073C3041.23 47.0123 3040.77 47.822 3040.82 48.8367C3040.84 49.305 3040.97 49.7214 3041.22 50.0858C3041.47 50.4346 3041.75 50.7196 3042.06 50.9408C3042.38 51.1613 3042.86 51.375 3043.49 51.5819C3044.13 51.7732 3044.66 51.9221 3045.09 52.0285C3045.53 52.1187 3046.17 52.2469 3047.03 52.413C3047.77 52.5527 3048.36 52.6754 3048.8 52.7812C3049.26 52.8707 3049.84 53.0176 3050.53 53.2217C3051.23 53.4259 3051.79 53.6359 3052.23 53.8516C3052.67 54.0511 3053.15 54.3272 3053.67 54.68C3054.19 55.0329 3054.59 55.4139 3054.89 55.8231C3055.19 56.2323 3055.45 56.7372 3055.66 57.3378C3055.89 57.9222 3056.02 58.5656 3056.05 59.268C3056.16 61.6251 3055.31 63.5233 3053.51 64.9625C3051.71 66.3861 3049.38 67.1602 3046.53 67.2849ZM3084.35 52.8009C3084.36 53.0351 3084.35 53.6456 3084.31 54.6324L3063.26 55.5515C3063.78 57.6873 3064.88 59.3832 3066.56 60.6392C3068.25 61.8789 3070.28 62.4472 3072.64 62.3443C3074.39 62.268 3075.98 61.831 3077.41 61.0332C3078.85 60.2199 3079.95 59.2097 3080.73 58.0029L3083.67 60.3143C3082.51 62.0229 3080.97 63.3962 3079.04 64.4343C3077.13 65.4717 3075.01 66.0415 3072.66 66.1437C3068.84 66.3107 3065.6 65.2165 3062.95 62.8612C3060.3 60.5059 3058.89 57.4941 3058.73 53.8257C3058.63 51.453 3059.09 49.2746 3060.11 47.2905C3061.15 45.2902 3062.63 43.6929 3064.55 42.4987C3066.47 41.3045 3068.63 40.655 3071.03 40.55C3073.42 40.4457 3075.61 40.9051 3077.61 41.9283C3079.61 42.9514 3081.21 44.4222 3082.4 46.3407C3083.6 48.2436 3084.25 50.397 3084.35 52.8009ZM3071.15 44.3453C3069.03 44.438 3067.22 45.1815 3065.73 46.5758C3064.25 47.9546 3063.35 49.6983 3063.05 51.8071L3079.89 51.0721C3079.41 48.9661 3078.36 47.2991 3076.76 46.0709C3075.16 44.8271 3073.29 44.2519 3071.15 44.3453ZM3108.62 39.4953L3112.74 39.3153L3113.81 63.7608L3109.69 63.9407L3109.5 59.5387C3108.52 61.1454 3107.22 62.4297 3105.61 63.3917C3104 64.3375 3102.2 64.8539 3100.21 64.9412C3097.91 65.0414 3095.8 64.5782 3093.88 63.5517C3091.96 62.5095 3090.43 61.036 3089.28 59.1311C3088.15 57.2099 3087.53 55.0551 3087.42 52.6667C3087.32 50.2784 3087.75 48.0857 3088.71 46.0888C3089.68 44.0756 3091.09 42.4739 3092.91 41.2838C3094.73 40.0781 3096.79 39.4251 3099.09 39.325C3101.09 39.2377 3102.92 39.6032 3104.6 40.4214C3106.3 41.2233 3107.7 42.382 3108.81 43.8973L3108.62 39.4953ZM3100.81 60.9269C3103.3 60.8178 3105.34 59.8842 3106.92 58.1261C3108.52 56.3673 3109.26 54.2312 3109.15 51.718C3109.04 49.2048 3108.12 47.1417 3106.37 45.5287C3104.65 43.9151 3102.53 43.1628 3100.03 43.2718C3097.52 43.3815 3095.47 44.3158 3093.87 46.0746C3092.27 47.8335 3091.53 49.9695 3091.64 52.4827C3091.75 54.9959 3092.68 57.059 3094.42 58.672C3096.16 60.285 3098.29 61.0366 3100.81 60.9269ZM3131.49 38.0981L3132.31 38.0623L3132.49 42.3239L3131.67 42.3597C3129.1 42.4721 3127.09 43.3182 3125.66 44.8978C3124.24 46.4611 3123.59 48.5228 3123.7 51.0829L3124.24 63.3056L3120.11 63.4855L3119.05 39.0401L3123.17 38.8601L3123.35 43.0749C3125.14 39.9158 3127.85 38.2569 3131.49 38.0981ZM3147.49 62.8765C3145.06 62.9828 3142.82 62.5255 3140.77 61.5044C3138.73 60.4677 3137.09 58.9986 3135.86 57.0971C3134.65 55.1793 3134 53.0262 3133.89 50.6379C3133.79 48.2495 3134.26 46.0552 3135.3 44.0548C3136.35 42.0382 3137.85 40.4321 3139.8 39.2365C3141.75 38.0254 3143.94 37.3666 3146.38 37.2603C3148.78 37.1553 3150.99 37.6141 3153.01 38.6365C3155.02 39.6434 3156.62 41.067 3157.81 42.9074L3154.32 45.218C3153.52 43.9239 3152.43 42.9237 3151.05 42.2174C3149.67 41.4955 3148.17 41.17 3146.55 41.2409C3144.04 41.3506 3141.98 42.2849 3140.39 44.0437C3138.79 45.8025 3138.05 47.9386 3138.16 50.4518C3138.26 52.965 3139.19 55.0281 3140.94 56.6411C3142.68 58.2541 3144.81 59.0057 3147.32 58.8959C3148.94 58.8251 3150.41 58.3701 3151.72 57.5309C3153.03 56.6918 3154.03 55.5925 3154.72 54.2329L3158.4 56.2307C3157.37 58.1835 3155.89 59.7574 3153.96 60.9522C3152.04 62.1308 3149.88 62.7722 3147.49 62.8765ZM3174.76 36.021C3177.74 35.8908 3180.18 36.6915 3182.07 38.4233C3183.97 40.1543 3184.99 42.5184 3185.12 45.5155L3185.78 60.6183L3181.66 60.7983L3181.06 46.9833C3180.96 44.7979 3180.24 43.0778 3178.89 41.8231C3177.53 40.5529 3175.77 39.9651 3173.6 40.0598C3171.34 40.1586 3169.56 40.9089 3168.26 42.3107C3166.96 43.7125 3166.36 45.5139 3166.45 47.7149L3167.05 61.4362L3162.93 61.6161L3161.42 27.0787L3165.54 26.8988L3166.15 40.8542C3168.01 37.8018 3170.88 36.1907 3174.76 36.021Z" fill="black"/>
<path d="M3219.57 26.6124L3224.8 38.6955L3237.29 42.8547L3225.21 48.0869L3221.05 60.58L3215.82 48.4969L3203.32 44.3377L3215.41 39.1056L3219.57 26.6124Z" fill="#4FC3F7"/>
<path d="M3269.58 57.5462C3267.07 57.6559 3264.75 57.1782 3262.64 56.113C3260.55 55.0471 3258.87 53.5329 3257.61 51.5703C3256.35 49.5921 3255.67 47.362 3255.56 44.88L3254.67 24.462L3259.05 24.2708L3259.94 44.5952C3260.05 47.1864 3261 49.3188 3262.8 50.9921C3264.6 52.6492 3266.8 53.4212 3269.39 53.308C3272 53.1942 3274.13 52.2331 3275.79 50.4247C3277.45 48.6008 3278.22 46.3931 3278.11 43.8018L3277.22 23.4775L3281.57 23.2873L3282.46 43.7053C3282.57 46.1874 3282.09 48.4686 3281 50.549C3279.92 52.6138 3278.37 54.2688 3276.36 55.5139C3274.37 56.7584 3272.11 57.4358 3269.58 57.5462ZM3318.29 54.8331L3312.83 55.0713L3301.72 41.8558L3291.83 55.9883L3286.44 56.2234L3298.62 39.0119L3285.19 23.1296L3290.62 22.8924L3301.56 35.9979L3311.22 21.9927L3316.66 21.7556L3304.66 38.7482L3318.29 54.8331ZM3345.1 20.5139C3348.25 20.3762 3351.14 20.9696 3353.76 22.2939C3356.38 23.6183 3358.47 25.5132 3360.04 27.9786C3361.6 30.4285 3362.45 33.2066 3362.58 36.313C3362.72 39.4194 3362.11 42.2688 3360.77 44.861C3359.43 47.4532 3357.51 49.5233 3355.02 51.0712C3352.52 52.6191 3349.69 53.4619 3346.54 53.5995L3333.78 54.1567L3332.33 21.0711L3345.1 20.5139ZM3346.31 49.4805C3349.81 49.3279 3352.68 48.0137 3354.94 45.538C3357.19 43.0624 3358.24 40.0528 3358.09 36.5093C3357.98 34.1834 3357.35 32.0995 3356.19 30.2577C3355.05 28.3997 3353.51 26.9733 3351.57 25.9787C3349.65 24.9834 3347.54 24.5361 3345.23 24.637L3336.92 24.9999L3338 49.8434L3346.31 49.4805ZM3391.86 39.3748C3391.87 39.609 3391.86 40.2195 3391.82 41.2063L3370.77 42.1254C3371.29 44.2612 3372.39 45.9571 3374.07 47.213C3375.76 48.4527 3377.79 49.0211 3380.15 48.9182C3381.9 48.8419 3383.49 48.4048 3384.92 47.6071C3386.36 46.7937 3387.46 45.7836 3388.24 44.5767L3391.18 46.8882C3390.02 48.5967 3388.47 49.97 3386.55 51.0081C3384.64 52.0455 3382.51 52.6154 3380.17 52.7176C3376.35 52.8846 3373.11 51.7904 3370.46 49.4351C3367.81 47.0798 3366.4 44.068 3366.24 40.3996C3366.14 38.0268 3366.6 35.8484 3367.62 33.8644C3368.66 31.8641 3370.14 30.2668 3372.06 29.0726C3373.97 27.8784 3376.14 27.2288 3378.54 27.1239C3380.93 27.0196 3383.12 27.479 3385.12 28.5021C3387.12 29.5253 3388.72 30.9961 3389.91 32.9146C3391.11 34.8174 3391.75 36.9709 3391.86 39.3748ZM3378.66 30.9192C3376.53 31.0119 3374.73 31.7554 3373.24 33.1497C3371.75 34.5284 3370.86 36.2722 3370.56 38.381L3387.4 37.6459C3386.91 35.54 3385.87 33.8729 3384.27 32.6448C3382.67 31.401 3380.8 30.8258 3378.66 30.9192ZM3405 51.6336C3401.05 51.8061 3397.68 50.6705 3394.9 48.227L3397.07 45.1531C3399.16 47.1108 3401.72 48.0232 3404.77 47.8903C3406.42 47.818 3407.76 47.4543 3408.8 46.7992C3409.83 46.1285 3410.33 45.2545 3410.28 44.1774C3410.26 43.7247 3410.13 43.324 3409.88 42.9752C3409.64 42.6101 3409.36 42.3173 3409.04 42.0967C3408.73 41.8755 3408.27 41.669 3407.65 41.477C3407.05 41.2687 3406.52 41.1199 3406.06 41.0304C3405.62 40.9246 3404.99 40.7879 3404.17 40.6204C3403.41 40.4658 3402.81 40.3434 3402.37 40.2532C3401.93 40.1474 3401.35 39.985 3400.63 39.7659C3399.94 39.5461 3399.36 39.3287 3398.92 39.1136C3398.48 38.8979 3398 38.6139 3397.47 38.2618C3396.95 37.8933 3396.54 37.5049 3396.22 37.0963C3395.92 36.6715 3395.66 36.1669 3395.43 35.5826C3395.22 34.982 3395.09 34.3227 3395.06 33.6046C3395 32.0748 3395.38 30.7367 3396.2 29.5902C3397.03 28.4437 3398.12 27.5826 3399.49 27.0068C3400.86 26.4154 3402.4 26.0822 3404.12 26.0072C3407.64 25.8532 3410.68 26.8388 3413.23 28.964L3411.04 32.0858C3409.17 30.4158 3406.93 29.6378 3404.33 29.7516C3402.84 29.8163 3401.62 30.1512 3400.66 30.7561C3399.7 31.361 3399.25 32.1707 3399.29 33.1854C3399.31 33.6537 3399.45 34.0701 3399.7 34.4345C3399.95 34.7833 3400.23 35.0683 3400.53 35.2895C3400.85 35.51 3401.33 35.7237 3401.97 35.9306C3402.6 36.1219 3403.13 36.2708 3403.56 36.3773C3404 36.4674 3404.65 36.5956 3405.5 36.7617C3406.24 36.9014 3406.83 37.0242 3407.28 37.1299C3407.73 37.2195 3408.31 37.3663 3409.01 37.5705C3409.7 37.7746 3410.27 37.9846 3410.7 38.2003C3411.15 38.3998 3411.63 38.6759 3412.14 39.0288C3412.66 39.3816 3413.07 39.7626 3413.37 40.1718C3413.67 40.581 3413.92 41.0859 3414.14 41.6866C3414.37 42.2709 3414.5 42.9143 3414.53 43.6167C3414.63 45.9739 3413.78 47.872 3411.98 49.3112C3410.18 50.7348 3407.86 51.5089 3405 51.6336ZM3420.11 20.9921C3419.32 21.0268 3418.64 20.7982 3418.09 20.3063C3417.54 19.7987 3417.24 19.1547 3417.21 18.3742C3417.17 17.5781 3417.41 16.9108 3417.92 16.3725C3418.43 15.8342 3419.08 15.5477 3419.87 15.5129C3420.65 15.4789 3421.31 15.7081 3421.85 16.2008C3422.39 16.6934 3422.68 17.3378 3422.71 18.1339C3422.74 18.9144 3422.51 19.5816 3422 20.1356C3421.51 20.6732 3420.88 20.9587 3420.11 20.9921ZM3419.33 50.4213L3418.27 25.9758L3422.39 25.7959L3423.45 50.2414L3419.33 50.4213ZM3445.12 49.9287C3447.45 49.8271 3449.39 50.329 3450.94 51.4343C3452.49 52.5397 3453.42 54.1019 3453.75 56.121L3449.53 57.4075C3449.44 56.3169 3448.93 55.4553 3448.01 54.823C3447.11 54.2055 3445.96 53.9271 3444.57 53.9878L3435.56 54.3814C3433.53 54.47 3431.86 54.0033 3430.55 52.9814C3429.25 51.9588 3428.57 50.589 3428.49 48.8719C3428.44 47.7167 3428.66 46.628 3429.15 45.6058C3429.65 44.5673 3430.36 43.77 3431.27 43.214C3430.17 42.2769 3429.29 41.1579 3428.64 39.8569C3428 38.5553 3427.65 37.1396 3427.58 35.6098C3427.45 32.5814 3428.4 30.014 3430.44 27.9076C3432.49 25.7849 3435.11 24.6541 3438.29 24.515C3440.46 24.4203 3442.48 24.8638 3444.35 25.8456C3444.53 24.5397 3445.1 23.4825 3446.07 22.674C3447.04 21.8655 3448.26 21.4288 3449.74 21.3641L3451.62 21.2823L3451.78 25.1224L3450.14 25.194C3449.25 25.2328 3448.54 25.5143 3448 26.0383C3447.47 26.5461 3447.22 27.2062 3447.24 28.0186C3448.92 29.8379 3449.81 32.0432 3449.92 34.6345C3450.05 37.6472 3449.1 40.2228 3447.05 42.3611C3445 44.4838 3442.39 45.6143 3439.22 45.7526C3437.3 45.8365 3435.56 45.5293 3433.99 44.8312C3433.52 45.1646 3433.16 45.5871 3432.9 46.0989C3432.65 46.5944 3432.54 47.1075 3432.57 47.6383C3432.61 48.4968 3432.96 49.1697 3433.62 49.6569C3434.28 50.1441 3435.13 50.3652 3436.16 50.3202L3445.12 49.9287ZM3438.46 28.4488C3436.48 28.5354 3434.86 29.2473 3433.61 30.5846C3432.35 31.9062 3431.76 33.5193 3431.85 35.4237C3431.93 37.3438 3432.66 38.9152 3434.02 40.138C3435.41 41.3444 3437.08 41.9048 3439.05 41.8189C3441.01 41.733 3442.62 41.0292 3443.88 39.7076C3445.15 38.3696 3445.75 36.7406 3445.66 34.8205C3445.58 32.9161 3444.85 31.3606 3443.46 30.1542C3442.1 28.9314 3440.43 28.3629 3438.46 28.4488ZM3467.75 23.2287C3470.74 23.0985 3473.17 23.8993 3475.06 25.631C3476.97 27.362 3477.98 29.7261 3478.12 32.7232L3478.77 47.826L3474.65 48.006L3474.05 34.191C3473.96 32.0056 3473.23 30.2855 3471.88 29.0309C3470.52 27.7606 3468.76 27.1728 3466.59 27.2675C3464.33 27.3664 3462.55 28.1166 3461.25 29.5184C3459.95 30.9202 3459.35 32.7216 3459.44 34.9226L3460.04 48.6439L3455.92 48.8238L3454.85 24.3784L3458.98 24.1984L3459.14 27.9215C3460.99 24.9626 3463.87 23.3984 3467.75 23.2287Z" fill="black"/>
</svg>
