<svg width="23" height="29" viewBox="0 0 23 29" fill="none" xmlns="http://www.w3.org/2000/svg">
<path d="M18.2919 5.6213L15.8227 6.43699L13.4972 3.86495C12.265 2.45128 10.6386 0.921409 9.89236 0.401308C7.92015 -0.973246 6.78976 1.33041 7.5039 5.07818L8.10522 8.19243L4.35804 8.91009C2.00536 9.33135 0.403864 10.0384 0.154739 10.7367C-0.317495 11.7551 0.0878613 12.1962 4.30374 14.8967L8.89274 17.8573L8.71558 20.2704C8.00071 29.3637 11.3216 31.7575 14.1153 24.1131L15.3027 20.8186L16.9116 21.4644C21.6481 23.418 22.3299 23.576 22.8505 22.8291C23.1479 22.4023 22.383 20.2045 21.1496 17.9973C18.581 13.2741 18.5054 12.5872 20.3646 9.91961C23.1535 5.91815 22.4109 4.37011 18.2919 5.6213ZM11.8735 7.33091C11.6875 7.59767 11.395 7.79014 11.2884 7.71584C11.1285 7.60439 11.0479 7.15187 11.0739 6.77366C11.1371 6.34209 11.3925 6.20298 11.659 6.38873C11.9788 6.61163 12.0966 7.01079 11.8735 7.33091ZM14.8412 11.9359C14.954 12.5694 14.4396 13.8756 13.7331 14.8893L12.3945 16.81L11.8787 13.9139C11.4435 11.4703 11.5972 11.0225 12.6669 10.7376C14.173 10.2812 14.5833 10.4879 14.8412 11.9359ZM8.28393 13.3902C8.13024 13.838 7.46459 13.7704 6.61174 13.176C5.33247 12.2844 5.30024 12.1034 6.36997 11.8184C7.74836 11.4315 8.61732 12.1165 8.28393 13.3902Z" fill="#FCFCFD"/>
</svg>
