<svg width="33" height="33" viewBox="0 0 33 33" fill="none" xmlns="http://www.w3.org/2000/svg">
<g clip-path="url(#clip0_21_662)">
<path d="M5.01334 3.86719C5.01245 3.86719 5.01146 3.86719 5.01058 3.86719C4.70061 3.86719 4.40907 3.98802 4.18892 4.20761C3.96635 4.42963 3.84375 4.72526 3.84375 5.03997V22.6257C3.84375 23.2706 4.37044 23.7965 5.01797 23.7981C7.74777 23.8047 12.3213 24.3736 15.4764 27.6754V9.2714C15.4764 9.0528 15.4205 8.84744 15.3152 8.67751C12.7256 4.50721 7.74932 3.87359 5.01334 3.86719Z" fill="white"/>
<path d="M28.9294 22.6258V5.03997C28.9294 4.72526 28.8068 4.42963 28.5842 4.20761C28.3641 3.98802 28.0723 3.86719 27.7627 3.86719C27.7617 3.86719 27.7607 3.86719 27.7598 3.86719C25.0239 3.8737 20.0476 4.50732 17.458 8.67762C17.3526 8.84755 17.2969 9.05291 17.2969 9.27151V27.6754C20.452 24.3736 25.0255 23.8046 27.7553 23.7981C28.4027 23.7965 28.9294 23.2706 28.9294 22.6258Z" fill="white"/>
<path d="M31.6019 7.92285H30.7515V22.6258C30.7515 24.2723 29.41 25.6149 27.761 25.619C25.4455 25.6245 21.6277 26.0773 18.9238 28.6364C23.6002 27.4914 28.5299 28.2357 31.3394 28.876C31.6902 28.9559 32.0527 28.8733 32.3337 28.6493C32.6138 28.4258 32.7745 28.0918 32.7745 27.7333V9.09542C32.7746 8.44888 32.2484 7.92285 31.6019 7.92285Z" fill="white"/>
<path d="M2.02291 22.6258V7.92285H1.17256C0.526142 7.92285 0 8.44888 0 9.09542V27.733C0 28.0916 0.160668 28.4255 0.440733 28.649C0.72157 28.8729 1.08373 28.9557 1.43508 28.8756C4.24456 28.2353 9.17439 27.4911 13.8505 28.6361C11.1468 26.0771 7.32892 25.6244 5.01347 25.6189C3.36453 25.6149 2.02291 24.2723 2.02291 22.6258Z" fill="white"/>
</g>
<defs>
<clipPath id="clip0_21_662">
<rect width="32.7734" height="32.7734" fill="white"/>
</clipPath>
</defs>
</svg>
