<svg width="32" height="32" viewBox="0 0 32 32" fill="none" xmlns="http://www.w3.org/2000/svg">
<g clip-path="url(#clip0_30_311)">
<path d="M16.0002 15.043C16.2463 15.043 16.4461 14.8432 16.4461 14.5971C16.4461 14.3509 16.2463 14.1514 16.0002 14.1514C15.754 14.1514 15.5542 14.3509 15.5542 14.5971C15.5545 14.8432 15.754 15.0427 16.0002 15.043Z" fill="#0A84FF"/>
<path d="M12.9258 20.4014H19.0743V22.5673H12.9258V20.4014Z" fill="#0A84FF"/>
<path d="M6.98682 29.6689C6.98682 30.9404 8.01111 32.0002 9.28239 32.0002H22.7174C23.989 32.0002 25.013 30.9402 25.013 29.6689V26.3408H6.98682V29.6689ZM15.9999 27.2183C17.0782 27.2183 17.9524 28.0925 17.9524 29.1708C17.9524 30.2491 17.0782 31.1233 15.9999 31.1233C14.9216 31.1233 14.0474 30.2491 14.0474 29.1708C14.0488 28.093 14.9221 27.2196 15.9999 27.2183Z" fill="#0A84FF"/>
<path d="M18.4304 19.4238L19.4192 15.5805L16.4891 10.0488V13.2614C17.1378 13.4986 17.5226 14.167 17.4023 14.8471C17.2816 15.5273 16.6908 16.0226 16 16.0226C15.3092 16.0226 14.7183 15.5273 14.5977 14.8471C14.4773 14.167 14.8622 13.4986 15.5109 13.2614V10.0488L12.5835 15.5756L13.6493 19.4238H18.4304Z" fill="#0A84FF"/>
<path d="M22.7174 0H9.28239C8.01111 0 6.98682 1.06004 6.98682 2.33133V4.54148H25.013V2.33133C25.013 1.06004 23.9887 0 22.7174 0ZM18.3779 2.58515H13.6219C13.3517 2.58515 13.1328 2.36627 13.1328 2.09607C13.1328 1.82587 13.3517 1.60699 13.6219 1.60699H18.3779C18.6481 1.60699 18.867 1.82587 18.867 2.09607C18.867 2.36627 18.6481 2.58515 18.3779 2.58515Z" fill="#0A84FF"/>
<path d="M6.98682 25.3623H25.013V5.51953H6.98682V25.3623ZM11.6279 15.2941L15.5676 7.85059C15.6525 7.69038 15.8187 7.59022 15.9999 7.59022C16.1811 7.59022 16.3474 7.69038 16.4322 7.85059L20.3719 15.2941C20.429 15.4003 20.444 15.5239 20.4134 15.6404L19.4401 19.4235H19.5439C19.8192 19.4259 20.0439 19.6454 20.0523 19.921V23.0823C20.0523 23.3525 19.8138 23.5457 19.5439 23.5457H12.456C12.1861 23.5457 11.9475 23.3525 11.9475 23.0823V19.921C11.956 19.6454 12.1806 19.4259 12.456 19.4235H12.6342L11.5886 15.6489C11.5556 15.5302 11.5695 15.403 11.6279 15.2941Z" fill="#0A84FF"/>
<path d="M16.9746 29.1706C16.9746 29.7088 16.5384 30.145 16.0002 30.145C15.462 30.145 15.0259 29.7088 15.0259 29.1706C15.0259 28.6327 15.462 28.1963 16.0002 28.1963C16.5384 28.1963 16.9746 28.6327 16.9746 29.1706Z" fill="#0A84FF"/>
</g>
<defs>
<clipPath id="clip0_30_311">
<rect width="32" height="32" fill="white"/>
</clipPath>
</defs>
</svg>
