<svg width="32" height="32" viewBox="0 0 32 32" fill="none" xmlns="http://www.w3.org/2000/svg">
<g clip-path="url(#clip0_30_360)">
<path d="M10.3125 16.9375H0.9375C0.41975 16.9375 0 17.3572 0 17.875V31C0 31.5177 0.41975 31.9375 0.9375 31.9375H10.3125C10.8302 31.9375 11.25 31.5177 11.25 31V17.875C11.25 17.3572 10.8302 16.9375 10.3125 16.9375Z" fill="#0A84FF"/>
<path d="M31.0625 16.9375H29.8819C30.2516 17.9912 29.9724 19.1752 29.1306 19.9463L29.3575 20.2181C30.3481 21.4056 30.1906 23.1806 29.0056 24.1744L25.7731 26.8875C24.5862 27.881 22.8082 27.7364 21.805 26.5344L21.5856 26.2712C19.989 27.4805 17.6631 26.6736 17.1637 24.7281L15.165 16.9375H14.0625C13.545 16.9375 13.125 17.3575 13.125 17.875V31C13.125 31.5175 13.545 31.9375 14.0625 31.9375H31.0625C31.58 31.9375 32 31.5175 32 31V17.875C32 17.3575 31.58 16.9375 31.0625 16.9375Z" fill="#0A84FF"/>
<path d="M6.5625 5.6875C6.04556 5.6875 5.625 6.10806 5.625 6.625V7.5625H7.5V6.625C7.5 6.10806 7.07944 5.6875 6.5625 5.6875Z" fill="#0A84FF"/>
<path d="M13.125 5.6875V9.4375C14.1589 9.4375 15 8.59637 15 7.5625C15 6.52863 14.1589 5.6875 13.125 5.6875Z" fill="#0A84FF"/>
<path d="M31.0625 0.0625H0.9375C0.42 0.0625 0 0.4825 0 1V14.125C0 14.6425 0.42 15.0625 0.9375 15.0625H14.6838L14.3044 13.5844C13.7091 11.2629 16.1154 9.30663 18.2644 10.3588L27.8825 15.0625H31.0625C31.58 15.0625 32 14.6425 32 14.125V1C32 0.4825 31.58 0.0625 31.0625 0.0625ZM9.375 10.375C9.375 10.8925 8.955 11.3125 8.4375 11.3125C7.92 11.3125 7.5 10.8925 7.5 10.375V9.4375H5.625V10.375C5.625 10.8925 5.205 11.3125 4.6875 11.3125C4.17 11.3125 3.75 10.8925 3.75 10.375V6.625C3.75 5.07438 5.01188 3.8125 6.5625 3.8125C8.11312 3.8125 9.375 5.07438 9.375 6.625V10.375ZM13.125 11.3125H12.1875C11.67 11.3125 11.25 10.8925 11.25 10.375V4.75C11.25 4.2325 11.67 3.8125 12.1875 3.8125H13.125C15.1925 3.8125 16.875 5.495 16.875 7.5625C16.875 9.63 15.1925 11.3125 13.125 11.3125ZM27.1875 10.375H19.6875C19.17 10.375 18.75 9.955 18.75 9.4375C18.75 8.92 19.17 8.5 19.6875 8.5H27.1875C27.705 8.5 28.125 8.92 28.125 9.4375C28.125 9.955 27.705 10.375 27.1875 10.375ZM27.1875 6.625H19.6875C19.17 6.625 18.75 6.205 18.75 5.6875C18.75 5.17 19.17 4.75 19.6875 4.75H27.1875C27.705 4.75 28.125 5.17 28.125 5.6875C28.125 6.205 27.705 6.625 27.1875 6.625Z" fill="#0A84FF"/>
<path d="M27.6413 17.0325L17.4405 12.0436C16.7236 11.6929 15.9221 12.3454 16.1205 13.1188L18.9802 24.2623C19.1515 24.9295 19.962 25.1904 20.4903 24.7479L21.8243 23.6303L23.2453 25.3338C23.577 25.7313 24.1697 25.7855 24.5679 25.4514L27.8008 22.7386C28.1966 22.4065 28.249 21.8167 27.918 21.4199L26.4945 19.7134L27.8315 18.5933C28.351 18.1581 28.2503 17.3303 27.6413 17.0325Z" fill="#0A84FF"/>
</g>
<defs>
<clipPath id="clip0_30_360">
<rect width="32" height="32" fill="white"/>
</clipPath>
</defs>
</svg>
