<svg width="32" height="32" viewBox="0 0 32 32" fill="none" xmlns="http://www.w3.org/2000/svg">
<path d="M23.5469 8.05794H24.4735V7.82628C24.4729 7.01501 24.1507 6.23708 23.5775 5.663C23.0042 5.08892 22.2268 4.76551 21.4155 4.76367H5.06464C4.64354 4.76631 4.22743 4.85514 3.84197 5.02471C3.4565 5.19427 3.10984 5.44097 2.82335 5.7496C2.53685 6.05824 2.31659 6.42227 2.17614 6.81927C2.03568 7.21626 1.978 7.63782 2.00666 8.05795H2.9333L23.5469 8.05794ZM5.25923 7.63632C5.07648 7.63392 4.90204 7.55963 4.77367 7.42955C4.64529 7.29947 4.57331 7.12407 4.57332 6.94131C4.57332 6.75855 4.6453 6.58314 4.77369 6.45307C4.90207 6.323 5.07651 6.24872 5.25926 6.24632C5.442 6.24873 5.61645 6.32301 5.74482 6.45309C5.8732 6.58317 5.94517 6.75858 5.94517 6.94134C5.94517 7.1241 5.87318 7.2995 5.7448 7.42957C5.61642 7.55965 5.44197 7.63392 5.25923 7.63632ZM7.52028 7.63632C7.33754 7.63392 7.1631 7.55963 7.03472 7.42955C6.90634 7.29947 6.83437 7.12407 6.83437 6.94131C6.83437 6.75855 6.90636 6.58314 7.03474 6.45307C7.16312 6.323 7.33757 6.24872 7.52031 6.24632C7.70306 6.24873 7.8775 6.32301 8.00588 6.45309C8.13425 6.58317 8.20623 6.75858 8.20623 6.94134C8.20622 7.1241 8.13424 7.2995 8.00586 7.42957C7.87747 7.55965 7.70303 7.63392 7.52028 7.63632ZM9.78133 7.63632C9.59859 7.63392 9.42415 7.55963 9.29577 7.42955C9.16739 7.29947 9.09542 7.12407 9.09542 6.94131C9.09542 6.75855 9.16741 6.58314 9.29579 6.45307C9.42417 6.323 9.59862 6.24872 9.78136 6.24632C9.96411 6.24873 10.1386 6.32301 10.2669 6.45309C10.3953 6.58317 10.4673 6.75858 10.4673 6.94134C10.4673 7.1241 10.3953 7.2995 10.2669 7.42957C10.1385 7.55965 9.96408 7.63392 9.78133 7.63632Z" fill="#0A84FF"/>
<path d="M16.9582 14.2537C16.2085 10.1859 10.3841 10.263 9.75342 14.3557C10.3744 14.3105 10.9982 14.3928 11.5862 14.5975C12.1742 14.8023 12.7142 15.1252 13.1728 15.5464C13.6635 15.0567 14.2597 14.6856 14.9158 14.4616C15.5718 14.2376 16.2704 14.1664 16.9582 14.2537Z" fill="#0A84FF"/>
<path d="M20.4098 21.1201L19.7983 23.0706L21.8738 22.6581L20.4098 21.1201Z" fill="#0A84FF"/>
<path d="M19.6364 20.48C19.6522 20.3157 19.6816 20.153 19.7244 19.9935C19.7517 19.9233 19.7963 19.8611 19.8541 19.8128C19.8733 19.7915 19.915 19.7863 19.9144 19.7572C20.1447 18.9187 20.0677 18.0254 19.6972 17.2387C19.3268 16.4519 18.6873 15.8235 17.8943 15.4668C17.7771 16.345 17.4073 17.1703 16.8299 17.8423C16.2525 18.5143 15.4923 19.0041 14.6417 19.2522C14.5858 20.034 14.3271 20.7878 13.8911 21.4391C14.303 21.8228 14.7976 22.1066 15.3366 22.2688C15.8756 22.431 16.4447 22.4671 17 22.3744C17.5552 22.2817 18.0817 22.0627 18.5388 21.7342C18.9959 21.4058 19.3715 20.9767 19.6364 20.48Z" fill="#0A84FF"/>
<path d="M16.9953 15.1932C16.4157 15.0953 15.8209 15.1399 15.2623 15.3231C14.7037 15.5063 14.1981 15.8227 13.7891 16.2449C14.2282 16.8476 14.5115 17.5496 14.6138 18.2882C15.2628 18.0503 15.8311 17.6333 16.2526 17.0855C16.6741 16.5376 16.9317 15.8815 16.9953 15.1932Z" fill="#0A84FF"/>
<path d="M11.866 18.1865C11.9559 17.5008 12.2016 16.8446 12.5841 16.2684C11.9077 15.6258 11.0104 15.2676 10.0775 15.2676C9.96167 15.2676 9.85045 15.2722 9.73926 15.2815C9.81232 15.9083 10.0467 16.5054 10.4194 17.0145C10.7921 17.5237 11.2905 17.9275 11.866 18.1865Z" fill="#0A84FF"/>
<path d="M13.2007 17.0332C12.959 17.4739 12.8107 17.9597 12.7651 18.4603C12.9626 18.4937 13.1625 18.5108 13.3628 18.5112C14.1074 18.7008 13.3544 17.3408 13.2007 17.0332Z" fill="#0A84FF"/>
<path d="M12.8115 19.4053C12.8847 19.8509 13.0419 20.2786 13.2749 20.6655C13.4911 20.2817 13.6326 19.8604 13.6919 19.4238C13.3985 19.4474 13.1036 19.4412 12.8115 19.4053Z" fill="#0A84FF"/>
<path d="M6.43115 18.9142C6.43121 19.6391 6.64726 20.3474 7.05173 20.9489C7.45619 21.5504 8.03072 22.0177 8.70196 22.2911C9.37321 22.5646 10.1107 22.6318 10.8204 22.4843C11.53 22.3367 12.1795 21.981 12.6861 21.4626C12.2 20.7934 11.9082 20.0029 11.8428 19.1784C11.0512 18.8983 10.3518 18.4063 9.82067 17.7559C9.28959 17.1056 8.94732 16.3218 8.8312 15.4902C8.12854 15.7463 7.52151 16.2121 7.09225 16.8245C6.66298 17.4369 6.43221 18.1664 6.43115 18.9142Z" fill="#0A84FF"/>
<path d="M29.8016 14.6513L28.8471 13.6459C28.7756 13.5694 28.6896 13.5078 28.5941 13.4647C28.4987 13.4216 28.3956 13.3979 28.2909 13.3949C28.1862 13.3918 28.082 13.4096 27.9842 13.4471C27.8864 13.4846 27.797 13.5412 27.7212 13.6134L20.8037 20.1881L22.8099 22.2962L23.6625 21.4854L23.7273 21.4252L29.7784 15.6706C29.9158 15.538 29.9953 15.3566 29.9996 15.1657C30.004 14.9748 29.9328 14.79 29.8016 14.6513Z" fill="#0A84FF"/>
<path d="M23.111 23.2837C23.0475 23.346 22.9669 23.388 22.8794 23.4042L19.2098 24.1316C19.1311 24.1463 19.0499 24.1405 18.9741 24.1148C18.8983 24.089 18.8304 24.0442 18.7769 23.9847C18.7234 23.9251 18.6861 23.8528 18.6686 23.7747C18.6511 23.6965 18.654 23.6152 18.677 23.5385L18.9828 22.5656C18.128 23.1469 17.1019 23.4224 16.0708 23.3476C15.0398 23.2727 14.0642 22.8518 13.3023 22.1532C12.879 22.5767 12.3763 22.9127 11.8229 23.1416C11.2695 23.3706 10.6764 23.4882 10.0776 23.4876C4.78082 23.3746 3.79037 16.071 8.80349 14.5268C8.88801 13.3798 9.40184 12.3067 10.2425 11.5218C11.0831 10.7368 12.1888 10.2976 13.3389 10.2918C14.489 10.2859 15.5991 10.7139 16.4476 11.4902C17.2962 12.2666 17.8209 13.3343 17.9171 14.4804C18.8053 14.79 19.5759 15.3667 20.1234 16.1315C20.6709 16.8964 20.9684 17.8118 20.9751 18.7524C21.6185 18.1392 23.853 16.0154 24.464 15.4349L24.4732 8.98535H2.00635V24.1733C2.00698 24.9846 2.32922 25.7625 2.90243 26.3366C3.47565 26.9107 4.25309 27.2341 5.06435 27.2359H21.4152C22.2265 27.2341 23.0039 26.9107 23.5772 26.3366C24.1504 25.7625 24.4726 24.9846 24.4732 24.1733V21.991C24.1744 22.2775 23.3982 23.0107 23.111 23.2837Z" fill="#0A84FF"/>
</svg>
