<svg width="32" height="32" viewBox="0 0 32 32" fill="none" xmlns="http://www.w3.org/2000/svg">
<path d="M17.0367 26.6623C17.0236 25.9378 17.208 25.2234 17.57 24.5957L22 16.925V16.0003H22.5333L23.688 14.0003H22V10.0003H26V10.523C26.2863 10.3185 26.6116 10.1751 26.9556 10.1016C27.2997 10.0281 27.6551 10.0261 28 10.0957V6.00033C28 5.11627 27.6488 4.26842 27.0237 3.6433C26.3986 3.01818 25.5507 2.66699 24.6667 2.66699H5.33333C4.44928 2.66699 3.60143 3.01818 2.97631 3.6433C2.35119 4.26842 2 5.11627 2 6.00033V24.0003C2 24.4381 2.08622 24.8715 2.25373 25.2759C2.42125 25.6804 2.66678 26.0478 2.97631 26.3573C3.28584 26.6669 3.6533 26.9124 4.05772 27.0799C4.46214 27.2474 4.89559 27.3337 5.33333 27.3337H17.048L17.0367 26.6623ZM22 4.66699H24.6667C25.0203 4.66699 25.3594 4.80747 25.6095 5.05752C25.8595 5.30756 26 5.6467 26 6.00033V8.00033H22V4.66699ZM8 25.3337H5.33333C4.97971 25.3337 4.64057 25.1932 4.39052 24.9431C4.14048 24.6931 4 24.3539 4 24.0003V22.0003H8V25.3337ZM8 20.0003H4V16.0003H8V20.0003ZM8 14.0003H4V10.0003H8V14.0003ZM8 8.00033H4V6.00033C4 5.6467 4.14048 5.30756 4.39052 5.05752C4.64057 4.80747 4.97971 4.66699 5.33333 4.66699H8V8.00033ZM11.3293 18.4177V12.2497C11.3293 12.0156 11.391 11.7857 11.508 11.583C11.625 11.3803 11.7933 11.212 11.996 11.095C12.1987 10.978 12.4286 10.9164 12.6627 10.9164C12.8967 10.9164 13.1266 10.978 13.3293 11.095L18.6707 14.179C18.8733 14.296 19.0416 14.4643 19.1587 14.667C19.2757 14.8697 19.3373 15.0996 19.3373 15.3337C19.3373 15.5677 19.2757 15.7976 19.1587 16.0003C19.0416 16.203 18.8733 16.3713 18.6707 16.4883L13.3293 19.5723C13.1266 19.6893 12.8967 19.751 12.6627 19.751C12.4286 19.751 12.1987 19.6894 11.996 19.5723C11.7933 19.4553 11.625 19.287 11.508 19.0843C11.391 18.8816 11.3293 18.6517 11.3293 18.4177Z" fill="#0A84FF"/>
<path d="M25.9998 23.3295V23.9995C25.9985 24.3198 25.882 24.6288 25.6716 24.8702C25.4611 25.1116 25.1709 25.2692 24.8538 25.3142L23.6885 27.3329H24.6665C25.1042 27.3329 25.5377 27.2467 25.9421 27.0791C26.3465 26.9116 26.714 26.6661 27.0235 26.3566C27.333 26.047 27.5786 25.6796 27.7461 25.2752C27.9136 24.8707 27.9998 24.4373 27.9998 23.9995V19.8662L25.9998 23.3295Z" fill="#0A84FF"/>
<path d="M25.1333 14.166L19.0239 24.7467L22.4906 26.7467L28.5999 16.166L25.1333 14.166ZM25.3246 19.166C25.2356 19.3179 25.0901 19.4284 24.9199 19.4734C24.7497 19.5184 24.5686 19.4942 24.4161 19.4062C24.2637 19.3182 24.1522 19.1734 24.1061 19.0035C24.06 18.8336 24.0829 18.6524 24.1699 18.4993L25.1699 16.766C25.2134 16.6896 25.2715 16.6225 25.341 16.5686C25.4105 16.5148 25.49 16.4752 25.5748 16.4521C25.6596 16.4291 25.7482 16.4231 25.8354 16.4344C25.9226 16.4457 26.0067 16.4742 26.0828 16.5182C26.159 16.5621 26.2256 16.6207 26.2791 16.6906C26.3325 16.7604 26.3715 16.8401 26.394 16.9251C26.4165 17.0101 26.4219 17.0987 26.41 17.1858C26.3981 17.2729 26.3691 17.3568 26.3246 17.4327L25.3246 19.166Z" fill="#0A84FF"/>
<path d="M29.2667 15.0106L29.8246 14.0446C29.9121 13.8927 29.9687 13.7252 29.9913 13.5514C30.0139 13.3777 30.0021 13.2012 29.9564 13.0321C29.9108 12.8629 29.8323 12.7044 29.7254 12.5656C29.6184 12.4269 29.4852 12.3105 29.3333 12.2232L28.1787 11.5566C27.8724 11.3798 27.5085 11.3318 27.1669 11.4234C26.8254 11.5149 26.5341 11.7383 26.3573 12.0446L25.7993 13.0112L29.2667 15.0106Z" fill="#0A84FF"/>
<path d="M18.4494 25.9551C18.393 26.1791 18.3662 26.4095 18.3694 26.6404L18.4041 28.6771C18.406 28.7922 18.4376 28.9049 18.496 29.0041C18.5544 29.1033 18.6374 29.1858 18.7371 29.2434C18.8368 29.301 18.9497 29.3318 19.0648 29.3328C19.18 29.3338 19.2934 29.3049 19.3941 29.2491L21.1754 28.2604C21.3771 28.1476 21.5633 28.0091 21.7294 27.8484L18.4494 25.9551Z" fill="#0A84FF"/>
</svg>
