<svg width="33" height="33" viewBox="0 0 33 33" fill="none" xmlns="http://www.w3.org/2000/svg">
<g clip-path="url(#clip0_21_456)">
<path d="M26.6286 25.3578C28.2143 25.3578 29.5044 24.0721 29.5044 22.4865V5.4594C29.5044 3.97217 28.2958 2.76367 26.8087 2.76367H5.71868C4.23145 2.76367 3.02295 3.97217 3.02295 5.4594V22.4865C3.02295 24.0721 4.31285 25.3578 5.89865 25.3578H12.4757V27.0064H11.7034C10.998 27.0064 10.4233 27.576 10.4233 28.2815V29.2426C10.4233 29.5301 10.6584 29.7651 10.9459 29.7651H21.5834C21.8708 29.7651 22.1059 29.5301 22.1059 29.2426V28.2815C22.1059 27.576 21.5312 27.0064 20.8258 27.0064H20.0515V25.3578H26.6286ZM16.2658 23.965C15.8586 23.965 15.5286 23.6394 15.5286 23.2321C15.5286 22.8207 15.8586 22.4907 16.2658 22.4907C16.6686 22.4907 16.9986 22.8207 16.9986 23.2321C16.9986 23.6394 16.6686 23.965 16.2658 23.965ZM3.88009 21.1108V5.4594C3.88009 4.44803 4.70721 3.62081 5.71868 3.62081H26.8087C27.82 3.62081 28.6473 4.44803 28.6473 5.4594V21.1108H3.88009Z" fill="#0A84FF"/>
<path d="M23.9504 7.00684C23.4147 7.00684 22.9647 7.34124 22.789 7.81689H17.5347C17.359 7.34124 16.9047 7.00684 16.3733 7.00684C15.8419 7.00684 15.3918 7.34124 15.2162 7.81689H9.73901C9.56323 7.34124 9.11332 7.00684 8.5776 7.00684C7.89614 7.00684 7.34326 7.55971 7.34326 8.24547C7.34326 8.92683 7.89614 9.4797 8.5776 9.4797C9.11332 9.4797 9.56323 9.14551 9.73901 8.67404H12.8075C10.5661 9.86119 9.00617 12.171 8.87758 14.854H8.60334C8.35903 14.854 8.15761 15.0511 8.15761 15.2997V16.6882C8.15761 16.9326 8.35903 17.1339 8.60334 17.1339H9.9962C10.2404 17.1339 10.4419 16.9326 10.4419 16.6882V15.2997C10.4419 15.0511 10.2404 14.854 9.9962 14.854H9.73472C9.90182 11.7554 12.2418 9.22252 15.2462 8.75544C15.379 9.03836 15.6061 9.26102 15.8932 9.38532C15.8891 9.3939 15.8847 9.3983 15.8805 9.40688L12.7219 15.7239C12.649 15.874 12.6662 16.0583 12.7775 16.1868C12.8847 16.3197 13.0604 16.3753 13.2232 16.3283L16.2661 15.4625L19.3048 16.3283C19.5056 16.373 19.6539 16.3088 19.7504 16.1868C19.8619 16.0583 19.8833 15.874 19.8062 15.7239L16.6647 9.4412C17.0247 9.35979 17.3247 9.11537 17.4833 8.78976C20.3932 9.34263 22.6262 11.8241 22.789 14.854H22.5319C22.2876 14.854 22.0862 15.0511 22.0862 15.2997V16.6882C22.0862 16.9326 22.2876 17.1339 22.5319 17.1339H23.9248C24.169 17.1339 24.3705 16.9326 24.3705 16.6882V15.2997C24.3705 15.0511 24.169 14.854 23.9248 14.854H23.6461C23.5175 12.171 21.9576 9.86119 19.7162 8.67404H22.789C22.9647 9.14551 23.4147 9.4797 23.9504 9.4797C24.6319 9.4797 25.1847 8.92683 25.1847 8.24547C25.1847 7.55971 24.6319 7.00684 23.9504 7.00684Z" fill="#0A84FF"/>
</g>
<defs>
<clipPath id="clip0_21_456">
<rect width="32.5266" height="32.5266" fill="white"/>
</clipPath>
</defs>
</svg>
